<svg width="576" height="401" viewBox="0 0 576 501" fill="none" xmlns="http://www.w3.org/2000/svg">
<path d="M116.683 475.461C116.683 475.461 117.648 455.262 137.426 457.61L116.683 475.461Z" fill="#3F3D56"/>
<path d="M111.095 456.239C116.562 456.239 120.994 451.811 120.994 446.348C120.994 440.886 116.562 436.458 111.095 436.458C105.628 436.458 101.196 440.886 101.196 446.348C101.196 451.811 105.628 456.239 111.095 456.239Z" fill="#F9E900"/>
<path d="M112.278 463.004H109.484V482.547H112.278V463.004Z" fill="#3F3D56"/>
<path d="M442.678 478.911C442.678 478.911 443.643 458.712 463.421 461.06L442.678 478.911Z" fill="#3F3D56"/>
<path d="M437.089 459.689C442.556 459.689 446.988 455.261 446.988 449.799C446.988 444.336 442.556 439.908 437.089 439.908C431.622 439.908 427.19 444.336 427.19 449.799C427.19 455.261 431.622 459.689 437.089 459.689Z" fill="#F9E900"/>
<path d="M438.273 466.454H435.479V485.997H438.273V466.454Z" fill="#3F3D56"/>
<path d="M490.334 482.362C490.334 482.362 491.299 462.163 511.077 464.511L490.334 482.362Z" fill="#3F3D56"/>
<path d="M484.745 463.14C490.212 463.14 494.644 458.712 494.644 453.249C494.644 447.787 490.212 443.359 484.745 443.359C479.278 443.359 474.846 447.787 474.846 453.249C474.846 458.712 479.278 463.14 484.745 463.14Z" fill="#F9E900"/>
<path d="M485.929 469.904H483.135V489.448H485.929V469.904Z" fill="#3F3D56"/>
<path d="M194.729 465.8C194.729 465.8 195.693 445.601 215.472 447.949L194.729 465.8Z" fill="#3F3D56"/>
<path d="M189.14 446.578C194.607 446.578 199.039 442.15 199.039 436.687C199.039 431.225 194.607 426.797 189.14 426.797C183.673 426.797 179.241 431.225 179.241 436.687C179.241 442.15 183.673 446.578 189.14 446.578Z" fill="#F9E900"/>
<path d="M190.323 453.342H187.529V472.886H190.323V453.342Z" fill="#3F3D56"/>
<path d="M47.6165 469.25C47.6165 469.25 48.5812 449.051 68.3598 451.399L47.6165 469.25Z" fill="#3F3D56"/>
<path d="M42.0279 450.028C47.495 450.028 51.9269 445.6 51.9269 440.138C51.9269 434.675 47.495 430.247 42.0279 430.247C36.5608 430.247 32.1288 434.675 32.1288 440.138C32.1288 445.6 36.5608 450.028 42.0279 450.028Z" fill="#F9E900"/>
<path d="M43.2114 456.793H40.4172V476.336H43.2114V456.793Z" fill="#3F3D56"/>
<path d="M286.956 434.15C346.521 434.15 394.807 385.905 394.807 326.39C394.807 266.876 346.521 218.63 286.956 218.63C227.391 218.63 179.104 266.876 179.104 326.39C179.104 385.905 227.391 434.15 286.956 434.15Z" fill="#3F3D56"/>
<path d="M262.864 335.04C260.185 331.836 256.835 329.259 253.05 327.49C249.266 325.722 245.138 324.805 240.96 324.805C236.782 324.805 232.655 325.722 228.87 327.49C225.085 329.259 221.735 331.836 219.056 335.04C214.473 330.668 211.305 325.025 209.961 318.838C208.617 312.651 209.158 306.204 211.515 300.327C213.872 294.45 217.936 289.413 223.184 285.865C228.432 282.317 234.624 280.421 240.96 280.421C247.297 280.421 253.488 282.317 258.736 285.865C263.984 289.413 268.049 294.45 270.405 300.327C272.762 306.204 273.303 312.651 271.959 318.838C270.615 325.025 267.447 330.668 262.864 335.04Z" fill="white"/>
<path d="M251.781 312.226C245.755 312.226 240.869 307.345 240.869 301.323C240.869 295.302 245.755 290.421 251.781 290.421C257.808 290.421 262.693 295.302 262.693 301.323C262.693 307.345 257.808 312.226 251.781 312.226Z" fill="#3F3D56"/>
<path d="M348.511 335.04C345.832 331.836 342.482 329.259 338.697 327.49C334.913 325.722 330.785 324.805 326.607 324.805C322.429 324.805 318.302 325.722 314.517 327.49C310.732 329.259 307.382 331.836 304.703 335.04C300.12 330.668 296.952 325.025 295.608 318.838C294.264 312.651 294.805 306.204 297.162 300.327C299.519 294.45 303.583 289.413 308.831 285.865C314.079 282.317 320.271 280.421 326.607 280.421C332.944 280.421 339.135 282.317 344.383 285.865C349.631 289.413 353.696 294.45 356.052 300.327C358.409 306.204 358.95 312.651 357.606 318.838C356.262 325.025 353.094 330.668 348.511 335.04Z" fill="white"/>
<path d="M337.431 312.226C331.405 312.226 326.519 307.345 326.519 301.323C326.519 295.302 331.405 290.421 337.431 290.421C343.457 290.421 348.343 295.302 348.343 301.323C348.343 307.345 343.457 312.226 337.431 312.226Z" fill="#3F3D56"/>
<path d="M209.239 366.008C216.247 366.008 221.928 360.332 221.928 353.33C221.928 346.329 216.247 340.653 209.239 340.653C202.232 340.653 196.551 346.329 196.551 353.33C196.551 360.332 202.232 366.008 209.239 366.008Z" fill="#ED33B9"/>
<path d="M355.156 366.008C362.164 366.008 367.844 360.332 367.844 353.33C367.844 346.329 362.164 340.653 355.156 340.653C348.148 340.653 342.468 346.329 342.468 353.33C342.468 360.332 348.148 366.008 355.156 366.008Z" fill="#ED33B9"/>
<path d="M282.198 327.975L272.681 369.177L288.542 353.33L282.198 327.975Z" fill="#F9E900"/>
<path d="M331.095 486.446L320.291 477.386L320.543 486.446H317.187L316.919 476.866L302.332 486.446H296.225L316.81 472.927L316.013 444.54L315.417 423.101L318.764 423.009L319.368 444.54L320.165 472.902L336.312 486.446H331.095Z" fill="#3F3D56"/>
<path d="M280.337 486.446L269.533 477.386L269.785 486.446H266.439L266.17 476.866L251.583 486.446H245.476L266.052 472.927L265.256 444.54L264.66 423.101L268.015 423.009L268.619 444.54L269.408 472.902L285.555 486.446H280.337Z" fill="#3F3D56"/>
<path d="M288.542 210.707C285.583 210.707 282.972 213.003 281.227 216.531C279.688 211.226 276.456 207.537 272.681 207.537C272.425 207.563 272.17 207.605 271.92 207.665C270.469 202.001 267.097 198.029 263.165 198.029C257.909 198.029 253.649 205.124 253.649 213.876C253.649 222.628 257.909 229.723 263.165 229.723C263.422 229.698 263.676 229.655 263.927 229.595C265.378 235.259 268.75 239.231 272.681 239.231C275.641 239.231 278.251 236.935 279.997 233.407C281.535 238.712 284.767 242.401 288.542 242.401C293.798 242.401 298.058 235.306 298.058 226.554C298.058 217.802 293.798 210.707 288.542 210.707Z" fill="#3F3D56"/>
</svg>
