<svg width="563" height="440" viewBox="0 0 640 640" fill="none" xmlns="http://www.w3.org/2000/svg">
<path d="M432.909 492.736L401.677 477.76V438.63L432.909 453.606V492.736Z" fill="#0A1045"/>
<path d="M432.909 453.606L463.578 443.238V480.179L432.909 492.736V453.606Z" fill="#0A1045"/>
<path d="M401.677 438.63L431.91 428.954L463.577 443.238L432.909 453.606L401.677 438.63Z" fill="#0A1045"/>
<path d="M428.044 466.048V481.69C428.044 482.202 427.763 482.355 427.251 482.138L422.246 480C422.012 479.915 421.81 479.76 421.668 479.556C421.526 479.352 421.451 479.109 421.452 478.861V477.734C421.452 477.504 421.311 477.389 421.119 477.504C419.673 478.451 417.51 478.31 414.719 477.082C410.137 475.072 406.719 471.373 406.719 466.547C406.719 461.722 410.137 460.467 416.447 463.232L421.183 465.306C421.324 465.306 421.465 465.306 421.465 465.139V464.166C421.413 463.063 421.026 462.002 420.356 461.124C419.686 460.246 418.765 459.593 417.715 459.251C415.846 458.419 414.579 458.522 414.156 459.469C413.977 459.853 413.695 459.917 413.222 459.661L408.025 456.73C407.564 456.474 407.231 456.102 407.283 455.744C407.743 452.07 411.916 451.034 417.523 453.517C423.743 456.166 428.044 461.517 428.044 466.048ZM421.452 471.168V469.517C421.446 469.431 421.416 469.349 421.366 469.279C421.317 469.21 421.249 469.154 421.171 469.12L417.843 467.661C415.039 466.381 413.299 466.752 413.299 468.71C413.399 469.651 413.765 470.543 414.354 471.282C414.944 472.021 415.732 472.577 416.627 472.883C419.251 474.086 421.452 473.51 421.452 471.219V471.168Z" fill="#ED33B9"/>
<path d="M460.672 466.138C460.703 468.15 460.436 470.156 459.878 472.09C459.245 474.417 458.107 476.577 456.545 478.415C454.983 480.253 453.036 481.725 450.841 482.726C448.358 483.763 446.681 483.482 445.504 482.432C445.363 482.304 445.184 482.432 445.184 482.662V483.942C445.19 484.192 445.114 484.437 444.969 484.64C444.823 484.844 444.616 484.994 444.377 485.069L439.373 487.155C438.861 487.373 438.579 487.155 438.579 486.694V455.501C438.576 455.253 438.651 455.012 438.794 454.809C438.936 454.607 439.139 454.455 439.373 454.374L444.377 452.288C444.902 452.07 445.184 452.288 445.184 452.749V462.387C445.184 462.63 445.363 462.643 445.504 462.387C446.742 460.339 448.617 458.752 450.841 457.869C455.155 456.077 458.432 457.331 459.801 460.698C460.457 462.433 460.753 464.284 460.672 466.138ZM453.747 469.171C453.864 467.604 453.468 466.04 452.62 464.717C452.204 464.284 451.651 464.006 451.055 463.932C450.458 463.857 449.854 463.99 449.344 464.307C447.952 464.937 446.837 466.052 446.208 467.443C445.514 469.095 445.178 470.875 445.222 472.666C445.117 474.143 445.442 475.618 446.157 476.915C446.508 477.405 447.029 477.746 447.619 477.872C448.208 477.997 448.823 477.898 449.344 477.594C450.883 476.934 452.107 475.705 452.761 474.163C453.429 472.585 453.765 470.885 453.747 469.171Z" fill="#F9E900"/>
<path d="M425.767 446.003C424.057 445.455 422.419 444.703 420.89 443.763C419.646 443.102 418.552 442.191 417.677 441.088C416.064 438.746 418.023 436.378 423.053 434.842C428.019 433.347 433.304 433.271 438.311 434.624C438.808 434.759 439.292 434.939 439.757 435.162C440.154 435.354 440.077 435.571 439.68 435.75L435.302 437.594C435.101 437.685 434.883 437.732 434.662 437.732C434.442 437.732 434.224 437.685 434.022 437.594L433.408 437.35C431.379 436.74 429.216 436.74 427.187 437.35C425.178 437.978 424.563 438.886 425.28 439.834C425.922 440.606 426.709 441.245 427.597 441.715C428.637 442.358 429.745 442.886 430.899 443.29C432.926 443.964 435.111 444 437.159 443.392C439.13 442.79 439.847 441.818 439.13 440.832C439.097 440.784 439.059 440.741 439.015 440.704C438.912 440.614 438.874 440.243 439.462 440.128L444.954 438.95C445.169 438.89 445.395 438.877 445.616 438.912C445.837 438.948 446.048 439.031 446.234 439.155C446.454 439.301 446.646 439.488 446.797 439.706C448.551 442.01 446.247 444.378 441.37 445.875C436.287 447.403 430.874 447.447 425.767 446.003Z" fill="#00C2D1"/>
<path d="M224 450.432L232.845 442.15C233.069 441.944 233.239 441.685 233.339 441.397C233.44 441.109 233.468 440.801 233.421 440.499L231.68 428.518C231.63 428.174 231.676 427.822 231.815 427.503C231.953 427.184 232.179 426.91 232.465 426.711C232.751 426.513 233.086 426.399 233.434 426.381C233.782 426.363 234.127 426.443 234.432 426.611L245.043 432.461C245.311 432.603 245.61 432.678 245.914 432.678C246.217 432.678 246.516 432.603 246.784 432.461L257.626 427.046C257.937 426.89 258.287 426.823 258.635 426.855C258.982 426.886 259.314 427.015 259.593 427.225C259.871 427.436 260.085 427.72 260.21 428.046C260.335 428.372 260.367 428.726 260.301 429.069L258.01 440.973C257.947 441.27 257.96 441.578 258.048 441.868C258.135 442.159 258.293 442.423 258.509 442.637L267.008 451.264C267.255 451.512 267.428 451.825 267.506 452.166C267.584 452.508 267.565 452.864 267.45 453.195C267.335 453.526 267.13 453.818 266.857 454.038C266.584 454.258 266.255 454.397 265.907 454.438L253.888 455.936C253.587 455.973 253.3 456.082 253.05 456.253C252.801 456.425 252.596 456.654 252.454 456.922L246.874 467.686C246.712 467.996 246.468 468.255 246.167 468.433C245.866 468.61 245.522 468.7 245.173 468.692C244.824 468.684 244.484 468.579 244.192 468.387C243.9 468.196 243.667 467.927 243.52 467.61L238.4 456.64C238.273 456.366 238.08 456.127 237.839 455.944C237.598 455.761 237.316 455.64 237.018 455.59L225.062 453.606C224.72 453.554 224.399 453.409 224.135 453.186C223.87 452.963 223.672 452.672 223.562 452.344C223.452 452.015 223.435 451.664 223.512 451.326C223.59 450.989 223.758 450.68 224 450.432Z" fill="#F9E900"/>
<path d="M259.43 489.434L263.68 485.466C263.787 485.365 263.868 485.241 263.917 485.103C263.966 484.965 263.981 484.817 263.962 484.672L263.091 478.925C263.07 478.764 263.093 478.601 263.157 478.453C263.222 478.305 263.325 478.176 263.456 478.082C263.587 477.987 263.742 477.93 263.903 477.916C264.064 477.903 264.226 477.932 264.371 478.003L269.491 480.806C269.621 480.876 269.766 480.912 269.914 480.912C270.061 480.912 270.206 480.876 270.336 480.806L275.533 478.246C275.682 478.172 275.85 478.14 276.017 478.156C276.183 478.171 276.342 478.233 276.475 478.334C276.609 478.436 276.711 478.572 276.77 478.729C276.83 478.885 276.845 479.055 276.813 479.219L275.712 484.941C275.685 485.083 275.694 485.229 275.736 485.367C275.778 485.506 275.854 485.632 275.955 485.734L280.038 489.882C280.157 490 280.24 490.15 280.278 490.314C280.316 490.477 280.307 490.648 280.252 490.807C280.197 490.966 280.099 491.106 279.969 491.212C279.838 491.318 279.68 491.384 279.514 491.405L273.741 492.122C273.595 492.141 273.456 492.195 273.335 492.28C273.215 492.364 273.117 492.477 273.05 492.608L270.374 497.728C270.301 497.879 270.186 498.007 270.044 498.097C269.901 498.186 269.736 498.233 269.568 498.233C269.4 498.233 269.235 498.186 269.092 498.097C268.949 498.007 268.835 497.879 268.762 497.728L266.291 492.454C266.23 492.322 266.137 492.206 266.021 492.117C265.905 492.028 265.77 491.968 265.626 491.942L259.891 490.995C259.724 490.966 259.569 490.891 259.443 490.778C259.317 490.665 259.224 490.52 259.177 490.357C259.129 490.195 259.127 490.022 259.172 489.859C259.217 489.696 259.306 489.549 259.43 489.434Z" fill="#F9E900"/>
<path d="M90.6112 289.613L81.5872 297.715C81.3614 297.916 81.1883 298.169 81.0834 298.453C80.9785 298.736 80.9449 299.041 80.9856 299.341L82.5345 311.36C82.579 311.706 82.526 312.057 82.3814 312.374C82.2367 312.692 82.0063 312.962 81.716 313.155C81.4257 313.348 81.0872 313.456 80.7387 313.467C80.3902 313.478 80.0457 313.391 79.744 313.216L69.2608 307.2C68.9999 307.044 68.7041 306.955 68.4002 306.941C68.0962 306.928 67.7937 306.99 67.52 307.123L56.576 312.32C56.2599 312.467 55.909 312.524 55.5626 312.483C55.2162 312.442 54.8879 312.306 54.6144 312.09C54.3409 311.873 54.1329 311.585 54.0137 311.257C53.8945 310.93 53.8687 310.575 53.9392 310.234L56.4992 298.381C56.5613 298.084 56.5507 297.776 56.4682 297.484C56.3858 297.192 56.2339 296.925 56.0256 296.704L47.7056 287.898C47.4631 287.646 47.2965 287.331 47.2251 286.989C47.1538 286.647 47.1805 286.291 47.3022 285.964C47.4239 285.636 47.6356 285.349 47.9131 285.137C48.1905 284.924 48.5224 284.794 48.8704 284.762L60.928 283.482C61.2285 283.45 61.5168 283.346 61.7686 283.178C62.0203 283.011 62.2282 282.786 62.3744 282.522L68.1728 271.885C68.3397 271.578 68.5894 271.323 68.8936 271.151C69.1978 270.978 69.5442 270.895 69.8936 270.909C70.2429 270.924 70.5811 271.037 70.8698 271.234C71.1584 271.431 71.3859 271.706 71.5264 272.026L76.4417 283.098C76.5606 283.376 76.7469 283.619 76.9838 283.807C77.2207 283.995 77.5007 284.121 77.7984 284.173L89.7152 286.413C90.0515 286.482 90.3624 286.642 90.6135 286.876C90.8647 287.11 91.0466 287.409 91.1391 287.74C91.2317 288.07 91.2314 288.42 91.1383 288.75C91.0452 289.081 90.8628 289.379 90.6112 289.613Z" fill="#F9E900"/>
<path d="M56.0128 249.882L51.6864 253.722C51.5776 253.818 51.494 253.94 51.4427 254.076C51.3914 254.212 51.374 254.358 51.392 254.502L52.1472 260.275C52.168 260.441 52.1418 260.61 52.0716 260.762C52.0014 260.914 51.8901 261.043 51.7502 261.135C51.6102 261.227 51.4473 261.278 51.28 261.282C51.1126 261.286 50.9474 261.243 50.8032 261.158L45.7728 258.253C45.6428 258.183 45.4977 258.147 45.3504 258.147C45.203 258.147 45.0579 258.183 44.928 258.253L39.68 260.762C39.5281 260.839 39.3574 260.871 39.1877 260.855C39.0181 260.839 38.8567 260.774 38.7223 260.67C38.5879 260.565 38.4862 260.424 38.4291 260.263C38.3721 260.103 38.3619 259.929 38.4 259.763L39.616 254.067C39.6463 253.924 39.6411 253.776 39.6009 253.635C39.5608 253.495 39.4868 253.366 39.3856 253.261L35.392 249.037C35.2759 248.915 35.1964 248.763 35.1626 248.598C35.1288 248.434 35.142 248.263 35.2008 248.105C35.2595 247.948 35.3614 247.81 35.4948 247.707C35.6282 247.605 35.7878 247.542 35.9552 247.526L41.7408 246.925C41.8854 246.906 42.024 246.855 42.1459 246.776C42.2679 246.696 42.3701 246.589 42.4448 246.464L45.2224 241.344C45.3016 241.195 45.4211 241.072 45.5673 240.988C45.7135 240.904 45.8804 240.863 46.0489 240.87C46.2173 240.876 46.3804 240.93 46.5195 241.026C46.6586 241.121 46.768 241.253 46.8352 241.408L49.1904 246.72C49.2512 246.854 49.3434 246.972 49.4592 247.063C49.5751 247.155 49.7111 247.217 49.856 247.245L55.5648 248.32C55.7333 248.347 55.8908 248.421 56.0187 248.534C56.1466 248.647 56.2395 248.794 56.2865 248.958C56.3336 249.122 56.3328 249.296 56.2843 249.46C56.2358 249.623 56.1416 249.77 56.0128 249.882Z" fill="#F9E900"/>
<path d="M288.205 145.357L279.833 143.667C279.624 143.622 279.406 143.629 279.201 143.69C278.995 143.75 278.807 143.861 278.656 144.013L272.525 149.952C272.354 150.14 272.131 150.273 271.885 150.335C271.638 150.396 271.379 150.382 271.141 150.296C270.902 150.209 270.694 150.054 270.544 149.849C270.394 149.644 270.308 149.399 270.297 149.146L269.312 140.659C269.29 140.446 269.216 140.242 269.095 140.066C268.974 139.889 268.811 139.745 268.621 139.648L261.12 135.68C260.891 135.576 260.699 135.406 260.566 135.193C260.433 134.98 260.366 134.732 260.373 134.481C260.38 134.23 260.46 133.987 260.604 133.781C260.749 133.575 260.95 133.417 261.184 133.325L268.953 129.766C269.151 129.681 269.324 129.547 269.456 129.377C269.588 129.207 269.675 129.006 269.709 128.794L271.142 120.32C271.168 120.066 271.268 119.826 271.431 119.63C271.594 119.433 271.812 119.29 272.057 119.219C272.302 119.147 272.562 119.151 272.805 119.228C273.048 119.306 273.263 119.454 273.421 119.654L279.193 125.952C279.336 126.111 279.516 126.232 279.717 126.303C279.919 126.375 280.135 126.395 280.345 126.362L288.806 125.171C289.049 125.134 289.297 125.167 289.521 125.266C289.746 125.366 289.937 125.528 290.072 125.733C290.206 125.938 290.28 126.177 290.282 126.423C290.285 126.668 290.217 126.909 290.086 127.117L285.888 134.566C285.793 134.755 285.744 134.963 285.744 135.174C285.744 135.386 285.793 135.594 285.888 135.782L289.638 143.462C289.77 143.681 289.833 143.935 289.819 144.19C289.806 144.445 289.716 144.691 289.562 144.894C289.408 145.098 289.196 145.251 288.954 145.333C288.712 145.416 288.451 145.424 288.205 145.357Z" fill="#F9E900"/>
<path d="M296.115 109.082L292.096 108.262C291.996 108.244 291.892 108.25 291.795 108.279C291.697 108.308 291.607 108.359 291.533 108.429L288.589 111.283C288.503 111.365 288.396 111.421 288.281 111.445C288.165 111.469 288.045 111.461 287.933 111.421C287.822 111.382 287.724 111.312 287.65 111.22C287.576 111.127 287.528 111.017 287.514 110.899L287.04 106.829C287.035 106.727 287.002 106.628 286.946 106.542C286.89 106.457 286.812 106.388 286.72 106.342L283.085 104.41C282.979 104.358 282.891 104.278 282.829 104.178C282.767 104.079 282.734 103.964 282.734 103.846C282.734 103.729 282.767 103.614 282.829 103.515C282.891 103.415 282.979 103.335 283.085 103.283L286.822 101.568C286.914 101.525 286.995 101.461 287.057 101.381C287.12 101.301 287.162 101.207 287.181 101.107L287.885 97.0624C287.908 96.9478 287.961 96.8416 288.04 96.7554C288.119 96.6691 288.22 96.6061 288.332 96.5731C288.444 96.5402 288.563 96.5385 288.676 96.5683C288.789 96.5982 288.892 96.6584 288.973 96.7424L291.84 99.7632C291.909 99.8388 291.995 99.8969 292.09 99.9325C292.186 99.9681 292.289 99.9803 292.39 99.968L296.461 99.392C296.577 99.3786 296.694 99.397 296.8 99.4452C296.906 99.4935 296.997 99.5699 297.063 99.6661C297.129 99.7622 297.167 99.8746 297.174 99.991C297.18 100.107 297.155 100.223 297.101 100.326L295.078 103.91C295.031 104.001 295.007 104.102 295.007 104.205C295.007 104.307 295.031 104.408 295.078 104.499L296.883 108.173C296.944 108.286 296.969 108.414 296.955 108.542C296.942 108.67 296.891 108.79 296.808 108.888C296.725 108.986 296.615 109.057 296.491 109.091C296.368 109.126 296.237 109.122 296.115 109.082Z" fill="#F9E900"/>
<path d="M449.907 362.534L441.6 360.832C441.39 360.795 441.175 360.807 440.971 360.867C440.766 360.927 440.579 361.033 440.422 361.178L434.291 367.117C434.121 367.304 433.9 367.437 433.654 367.499C433.409 367.561 433.151 367.548 432.913 367.463C432.674 367.379 432.466 367.225 432.315 367.022C432.164 366.819 432.077 366.576 432.064 366.323L431.078 357.837C431.057 357.624 430.982 357.42 430.861 357.243C430.741 357.067 430.578 356.923 430.387 356.826L422.848 352.819C422.616 352.717 422.419 352.547 422.283 352.332C422.147 352.118 422.079 351.868 422.085 351.614C422.092 351.36 422.175 351.114 422.322 350.907C422.469 350.7 422.674 350.541 422.912 350.451L430.681 346.906C430.879 346.82 431.052 346.686 431.184 346.516C431.316 346.346 431.403 346.145 431.437 345.933L432.909 337.523C432.934 337.269 433.035 337.029 433.198 336.833C433.361 336.637 433.579 336.493 433.823 336.422C434.068 336.35 434.329 336.354 434.572 336.431C434.815 336.509 435.029 336.657 435.187 336.858L440.96 343.142C441.105 343.298 441.285 343.418 441.485 343.491C441.685 343.565 441.9 343.59 442.112 343.565L450.573 342.362C450.817 342.322 451.068 342.354 451.294 342.454C451.521 342.554 451.714 342.717 451.849 342.925C451.985 343.132 452.057 343.374 452.058 343.622C452.058 343.87 451.987 344.112 451.853 344.32L447.654 351.757C447.548 351.953 447.492 352.173 447.492 352.397C447.492 352.62 447.548 352.84 447.654 353.037L451.405 360.717C451.52 360.94 451.568 361.191 451.542 361.441C451.515 361.69 451.416 361.927 451.256 362.12C451.097 362.314 450.884 362.457 450.644 362.53C450.404 362.604 450.148 362.605 449.907 362.534Z" fill="#F9E900"/>
<path d="M457.818 326.246L453.798 325.44C453.698 325.419 453.594 325.423 453.496 325.452C453.397 325.481 453.308 325.534 453.235 325.606L450.291 328.448C450.206 328.529 450.1 328.585 449.986 328.61C449.871 328.635 449.751 328.628 449.64 328.59C449.529 328.552 449.431 328.483 449.356 328.393C449.281 328.302 449.233 328.193 449.216 328.077L448.742 323.994C448.733 323.891 448.698 323.792 448.64 323.707C448.581 323.622 448.502 323.553 448.41 323.507L444.787 321.587C444.682 321.534 444.594 321.452 444.533 321.351C444.471 321.251 444.439 321.135 444.439 321.018C444.439 320.9 444.471 320.784 444.533 320.684C444.594 320.583 444.682 320.502 444.787 320.448L448.512 318.746C448.606 318.704 448.689 318.641 448.754 318.561C448.819 318.48 448.863 318.386 448.883 318.285L449.587 314.24C449.61 314.125 449.664 314.019 449.742 313.933C449.821 313.847 449.922 313.784 450.034 313.751C450.146 313.718 450.265 313.716 450.378 313.746C450.491 313.776 450.594 313.836 450.675 313.92L453.453 316.941C453.521 317.016 453.607 317.074 453.703 317.11C453.799 317.146 453.902 317.158 454.003 317.146L458.074 316.57C458.191 316.551 458.311 316.566 458.419 316.613C458.528 316.66 458.622 316.737 458.689 316.835C458.756 316.933 458.793 317.047 458.798 317.166C458.802 317.284 458.773 317.402 458.714 317.504L456.691 321.075C456.644 321.166 456.619 321.267 456.619 321.37C456.619 321.472 456.644 321.573 456.691 321.664L458.483 325.35C458.534 325.454 458.556 325.569 458.545 325.684C458.535 325.799 458.493 325.909 458.424 326.002C458.355 326.094 458.262 326.166 458.155 326.209C458.048 326.253 457.931 326.265 457.818 326.246Z" fill="#F9E900"/>
<path d="M543.846 170.47C543.846 170.47 540.224 151.437 515.75 154.163C491.277 156.89 477.235 189.504 478.63 199.475C480.026 209.446 480.896 244.275 480.896 244.275L529.843 266.035L562.432 247.04L563.789 199.45C563.789 199.45 564.698 167.296 543.846 170.47Z" fill="#F9E900" stroke="#263238" stroke-linecap="round" stroke-linejoin="round"/>
<path d="M485.389 520.333C485.389 520.333 478.131 527.59 468.16 536.653C458.189 545.715 466.355 552.973 479.04 550.733C491.725 548.493 499.43 534.861 499.43 534.861C499.43 534.861 506.688 531.699 506.688 525.35C506.688 519.002 490.829 516.262 485.389 520.333Z" fill="#00C2D1" stroke="#263238" stroke-linecap="round" stroke-linejoin="round"/>
<path d="M555.712 520.333C555.712 520.333 562.97 527.59 572.941 536.653C582.912 545.715 574.746 552.973 562.061 550.733C549.376 548.493 541.67 534.861 541.67 534.861C541.67 534.861 534.413 531.699 534.413 525.35C534.413 519.002 550.272 516.262 555.712 520.333Z" fill="#00C2D1" stroke="#263238" stroke-linecap="round" stroke-linejoin="round"/>
<path d="M477.235 361.715C477.235 361.715 482.214 443.29 483.123 457.344C484.032 471.398 486.298 506.739 486.298 506.739C486.298 506.739 482.662 512.64 482.662 514.906C482.662 517.171 483.123 523.059 483.123 523.059C483.123 523.059 490.803 526.234 494.451 526.682C498.099 527.13 507.136 528.499 507.136 528.499C507.136 528.499 508.954 520.819 508.045 516.262C507.136 511.706 506.24 506.739 506.24 506.739C506.24 506.739 508.506 499.942 508.506 495.859C508.506 491.776 508.045 489.523 508.045 486.797C508.045 484.07 517.568 394.803 517.568 394.803H522.099C522.099 394.803 529.779 491.789 530.253 493.594C530.726 495.398 529.344 500.851 530.701 504.026C531.789 506.837 532.7 509.714 533.427 512.64C532.398 515.246 531.784 517.997 531.61 520.794C531.734 523.557 532.194 526.295 532.979 528.947C536.285 529.313 539.612 529.467 542.938 529.408C549.747 529.408 558.81 523.507 558.81 523.507C558.81 523.507 557.44 512.64 556.992 509.427C556.544 506.214 555.635 501.747 555.635 499.904V487.219C555.635 485.402 556.083 477.696 556.083 477.696L560.166 362.586L515.302 339.021L477.235 361.715Z" fill="#0A1045" stroke="#263238" stroke-linecap="round" stroke-linejoin="round"/>
<path d="M510.72 238.899C510.72 238.899 493.952 234.829 485.338 238.003C476.723 241.178 464.038 253.862 460.864 257.485C457.69 261.107 448.179 274.253 448.179 274.253L460.864 285.581L483.072 272.896L486.246 297.37L458.24 351.744C458.24 351.744 478.17 372.595 515.84 373.952C553.51 375.309 582.912 354.918 582.912 354.918L554.726 295.552L555.174 267.008L582.4 286.49L595.968 267.904C595.968 267.904 579.648 249.779 570.138 243.43C560.627 237.082 546.112 238.451 536.602 238.451C527.091 238.451 512.576 239.36 512.576 239.36L510.72 238.899Z" fill="#ED33B9"/>
<path d="M510.72 238.899C510.72 238.899 493.952 234.829 485.338 238.003C476.723 241.178 464.038 253.862 460.864 257.485C457.69 261.107 448.179 274.253 448.179 274.253L460.864 285.581L483.072 272.896L486.246 297.37L458.24 351.744C458.24 351.744 478.17 372.595 515.84 373.952C553.51 375.309 582.912 354.918 582.912 354.918L554.726 295.552L555.174 267.008L582.4 286.49L595.968 267.904C595.968 267.904 579.648 249.779 570.138 243.43C560.627 237.082 546.112 238.451 536.602 238.451C527.091 238.451 512.576 239.36 512.576 239.36L510.72 238.899Z" stroke="#263238" stroke-linecap="round" stroke-linejoin="round"/>
<path d="M547.174 210.573C547.174 210.573 551.974 201.843 555.904 208.832C559.834 215.821 552.41 222.797 548.915 224.986C545.421 227.174 547.174 210.573 547.174 210.573Z" fill="#F6AF65" stroke="#263238" stroke-linecap="round" stroke-linejoin="round"/>
<path d="M508.506 238.003L510.31 257.933C511.398 260.675 513.292 263.023 515.742 264.666C518.192 266.309 521.082 267.17 524.032 267.136C535.027 267.136 537.51 255.616 537.51 255.616L539.776 234.778C539.776 234.778 521.638 239.808 508.506 238.003Z" fill="#F6AF65" stroke="#263238" stroke-linecap="round" stroke-linejoin="round"/>
<path d="M528.32 191.347C528.32 191.347 504.294 201.395 494.259 204.006L495.13 211.866C495.13 211.866 489.894 205.325 485.965 210.995C482.035 216.666 486.4 223.219 490.33 226.278C494.259 229.338 496.87 226.714 496.87 226.714C496.87 226.714 501.248 240.691 513.037 246.374C524.826 252.058 538.483 249.19 544.589 235.213C547.686 228.147 549.824 216.179 549.146 204.954C536.614 204.454 528.32 191.347 528.32 191.347Z" fill="#F6AF65" stroke="#263238" stroke-linecap="round" stroke-linejoin="round"/>
<path d="M519.104 219.059C519.104 219.059 522.598 223.872 528.717 219.059" stroke="#263238" stroke-linecap="round" stroke-linejoin="round"/>
<path d="M514.087 214.874C515.048 214.874 515.827 213.521 515.827 211.853C515.827 210.184 515.048 208.832 514.087 208.832C513.125 208.832 512.346 210.184 512.346 211.853C512.346 213.521 513.125 214.874 514.087 214.874Z" fill="#263238"/>
<path d="M530.829 214.874C531.79 214.874 532.569 213.521 532.569 211.853C532.569 210.184 531.79 208.832 530.829 208.832C529.867 208.832 529.088 210.184 529.088 211.853C529.088 213.521 529.867 214.874 530.829 214.874Z" fill="#263238"/>
<path d="M505.216 205.53C505.216 205.53 510.016 200.717 516.134 202.47" stroke="#263238" stroke-linecap="round" stroke-linejoin="round"/>
<path d="M528.717 202.47C528.717 202.47 536.141 199.411 539.2 205.965" stroke="#263238" stroke-linecap="round" stroke-linejoin="round"/>
<path d="M517.184 225.741C517.184 225.741 518.618 234.97 523.008 236.186C529.408 237.965 530.906 225.613 530.906 225.613L517.184 225.741Z" fill="#263238" stroke="#263238" stroke-linecap="round" stroke-linejoin="round"/>
<path d="M502.784 219.686C502.784 219.686 502.387 219.968 501.747 220.467C499.661 222.106 494.963 226.074 492.787 230.029C489.997 235.149 488.41 247.155 486.387 249.946C484.365 252.736 451.84 265.075 445.837 269.85C439.834 274.624 439.437 290.163 451.418 290.56C463.398 290.957 467.738 285.786 474.458 281.011C481.178 276.237 491.981 262.285 491.981 262.285C491.981 262.285 503.13 257.51 505.523 252.339C507.917 247.168 508.646 236.544 509.504 235.61C512.768 232.051 515.469 227.251 515.469 223.667C515.469 220.083 510.349 215.693 502.784 219.686Z" fill="#F6AF65" stroke="#263238" stroke-linecap="round" stroke-linejoin="round"/>
<path d="M515.187 223.091C515.187 223.091 514.099 221.082 512.269 223.091C510.438 225.101 503.309 231.501 502.758 232.602" stroke="#263238" stroke-linecap="round" stroke-linejoin="round"/>
<path d="M512.819 219.61C512.819 219.61 510.797 218.522 509.709 219.61C508.621 220.698 501.286 226.381 500.198 228.39C499.673 229.258 499.244 230.181 498.918 231.142" stroke="#263238" stroke-linecap="round" stroke-linejoin="round"/>
<path d="M503.488 219.61C503.488 219.61 497.818 224.73 495.437 229.67" stroke="#263238" stroke-linecap="round" stroke-linejoin="round"/>
<path d="M543.782 219.686C543.782 219.686 544.179 219.968 544.819 220.467C546.906 222.106 551.603 226.074 553.779 230.029C556.57 235.149 558.157 247.155 560.179 249.946C562.202 252.736 594.816 265.075 600.794 269.85C606.771 274.624 607.194 290.163 595.213 290.56C583.232 290.957 578.893 285.786 572.173 281.011C565.453 276.237 554.65 262.285 554.65 262.285C554.65 262.285 543.501 257.51 541.107 252.339C538.714 247.168 537.984 236.544 537.126 235.61C533.862 232.051 531.162 227.251 531.162 223.667C531.162 220.083 536.218 215.693 543.782 219.686Z" fill="#F6AF65" stroke="#263238" stroke-linecap="round" stroke-linejoin="round"/>
<path d="M531.379 223.091C531.379 223.091 532.467 221.082 534.298 223.091C536.128 225.101 543.258 231.501 543.808 232.602" stroke="#263238" stroke-linecap="round" stroke-linejoin="round"/>
<path d="M533.76 219.61C533.76 219.61 535.782 218.522 536.87 219.61C537.958 220.698 545.293 226.381 546.381 228.39C546.906 229.258 547.336 230.181 547.661 231.142" stroke="#263238" stroke-linecap="round" stroke-linejoin="round"/>
<path d="M543.078 219.61C543.078 219.61 548.749 224.73 551.13 229.67" stroke="#263238" stroke-linecap="round" stroke-linejoin="round"/>
<path d="M289.28 335.258L274.957 374.477C274.957 374.477 284.07 383.322 283.405 386.675C282.739 390.029 282.688 395.021 281.805 396.915C280.922 398.81 279.322 401.229 276.506 399.475C273.69 397.722 276.314 392.077 276.314 392.077L275.354 390.246L269.824 405.888C269.13 406.573 268.232 407.011 267.265 407.136C266.299 407.261 265.318 407.065 264.474 406.579C261.107 405.005 263.437 401.984 263.437 401.984L258.56 398.771C258.56 398.771 253.094 394.829 252.48 392.256C251.866 389.683 255.59 375.885 256.998 372.89C257.924 370.879 258.74 368.819 259.443 366.72C259.443 366.72 264.666 335.808 268.045 325.274L289.28 335.258Z" fill="#ED9E8A" stroke="#263238" stroke-linecap="round" stroke-linejoin="round"/>
<path d="M263.437 401.984L265.971 387.136" stroke="#263238" stroke-linecap="round" stroke-linejoin="round"/>
<path d="M258.534 398.771L259.776 386.97" stroke="#263238" stroke-linecap="round" stroke-linejoin="round"/>
<path d="M254.067 394.099L255.616 385.805" stroke="#263238" stroke-linecap="round" stroke-linejoin="round"/>
<path d="M299.405 519.578C299.405 519.578 285.811 532.083 280.921 538.598C276.032 545.114 283.648 550.554 294.515 551.104C305.382 551.654 314.073 540.237 321.139 536.422C328.205 532.608 330.381 532.083 330.381 520.115C330.381 508.147 299.405 519.578 299.405 519.578Z" fill="white" stroke="#F5F5F5" stroke-linecap="round" stroke-linejoin="round"/>
<path d="M321.139 536.422C326.477 533.555 329.024 532.582 329.945 527.053C326.401 528.356 323.096 530.237 320.166 532.621C315.84 536.666 304.806 548.288 293.965 547.2C283.123 546.112 279.885 541.53 279.885 541.53L279.552 541.402C278.361 546.624 285.222 550.643 294.489 551.104C305.382 551.68 314.073 540.237 321.139 536.422Z" fill="#ED9E8A"/>
<path d="M302.669 382.618L299.405 496.205L294.515 504.32L297.229 521.715C297.229 521.715 301.581 524.979 311.309 527.142C318.136 528.569 325.057 529.498 332.019 529.92C332.019 529.92 335.27 506.547 334.182 501.107C333.094 495.667 332.557 491.328 332.557 491.328L334.733 400.013L335.27 386.432L302.669 382.618Z" fill="#263238" stroke="#263238" stroke-linecap="round" stroke-linejoin="round"/>
<path d="M380.813 519.578C380.813 519.578 394.406 532.083 399.296 538.598C404.185 545.114 396.569 550.554 385.702 551.104C374.835 551.654 366.144 540.237 359.078 536.422C352.013 532.608 349.837 532.083 349.837 520.115C349.837 508.147 380.813 519.578 380.813 519.578Z" fill="white" stroke="#F5F5F5" stroke-linecap="round" stroke-linejoin="round"/>
<path d="M359.078 536.422C353.741 533.555 351.194 532.582 350.259 527.053C353.809 528.353 357.119 530.234 360.051 532.621C364.365 536.666 375.411 548.288 386.253 547.2C397.094 546.112 400.333 541.53 400.333 541.53L400.666 541.402C401.856 546.624 394.995 550.643 385.728 551.104C374.835 551.68 366.144 540.237 359.078 536.422Z" fill="#ED9E8A" stroke="#F5F5F5" stroke-linecap="round" stroke-linejoin="round"/>
<path d="M377.6 382.618L380.864 496.205L385.753 504.358L383.04 521.754C383.04 521.754 378.688 525.018 368.96 527.181C362.102 528.599 355.151 529.515 348.16 529.92C348.16 529.92 344.909 506.547 345.984 501.107C347.059 495.667 347.622 491.328 347.622 491.328L345.446 400.013L344.909 386.432L377.6 382.618Z" fill="#263238" stroke="#263238" stroke-linecap="round" stroke-linejoin="round"/>
<path d="M326.093 256.346C326.093 256.346 293.619 264.474 291.814 267.174C290.01 269.875 269.261 322.65 269.261 322.65L289.114 330.778L299.52 312.32L297.715 384.486L333.798 409.293L341.478 398.912L346.445 409.293L382.528 385.382L377.114 305.549L396.058 316.826L405.082 295.181C405.082 295.181 382.528 259.994 375.757 259.098C368.986 258.202 348.698 254.579 339.674 255.04C335.123 255.179 330.586 255.615 326.093 256.346Z" fill="#00C2D1" stroke="#263238" stroke-linecap="round" stroke-linejoin="round"/>
<path d="M343.373 279.846L342.323 392.691" stroke="#263238" stroke-linecap="round" stroke-linejoin="round"/>
<path d="M299.482 312.282L296.87 280.371" stroke="#263238" stroke-linecap="round" stroke-linejoin="round"/>
<path d="M377.062 305.51L376.806 275.149" stroke="#263238" stroke-linecap="round" stroke-linejoin="round"/>
<path d="M348.07 287.68C348.073 287.993 347.982 288.299 347.81 288.56C347.638 288.82 347.393 289.024 347.104 289.145C346.816 289.266 346.499 289.298 346.192 289.238C345.885 289.177 345.604 289.027 345.383 288.806C345.162 288.585 345.012 288.303 344.951 287.997C344.891 287.69 344.923 287.373 345.044 287.084C345.165 286.796 345.368 286.55 345.629 286.378C345.89 286.206 346.196 286.116 346.509 286.118C346.922 286.122 347.317 286.287 347.609 286.58C347.901 286.872 348.067 287.267 348.07 287.68Z" fill="#263238"/>
<path d="M348.07 323.213C348.07 323.525 347.978 323.83 347.804 324.089C347.631 324.348 347.384 324.55 347.096 324.668C346.807 324.787 346.49 324.818 346.184 324.756C345.878 324.694 345.598 324.543 345.378 324.321C345.159 324.1 345.01 323.818 344.95 323.512C344.891 323.206 344.924 322.889 345.045 322.601C345.166 322.314 345.37 322.069 345.631 321.897C345.891 321.726 346.197 321.636 346.509 321.638C346.715 321.638 346.919 321.679 347.109 321.758C347.3 321.838 347.472 321.954 347.618 322.1C347.763 322.247 347.878 322.42 347.955 322.611C348.033 322.802 348.072 323.007 348.07 323.213Z" fill="#263238"/>
<path d="M348.07 358.733C348.073 359.045 347.982 359.351 347.81 359.612C347.638 359.873 347.393 360.077 347.104 360.198C346.816 360.318 346.499 360.351 346.192 360.29C345.885 360.23 345.604 360.08 345.383 359.859C345.162 359.638 345.012 359.356 344.951 359.05C344.891 358.743 344.923 358.425 345.044 358.137C345.165 357.849 345.368 357.603 345.629 357.431C345.89 357.259 346.196 357.169 346.509 357.171C346.922 357.175 347.317 357.34 347.609 357.632C347.901 357.924 348.067 358.32 348.07 358.733Z" fill="#263238"/>
<path d="M348.07 394.24C348.07 394.552 347.978 394.857 347.804 395.116C347.631 395.375 347.384 395.577 347.096 395.696C346.807 395.815 346.49 395.845 346.184 395.783C345.878 395.721 345.598 395.57 345.378 395.349C345.159 395.127 345.01 394.845 344.95 394.539C344.891 394.233 344.924 393.916 345.045 393.629C345.166 393.341 345.37 393.096 345.631 392.925C345.891 392.753 346.197 392.663 346.509 392.666C346.715 392.666 346.919 392.706 347.109 392.786C347.3 392.865 347.472 392.981 347.618 393.127C347.763 393.274 347.878 393.448 347.955 393.638C348.033 393.829 348.072 394.034 348.07 394.24Z" fill="#263238"/>
<path d="M333.76 248.23C333.76 248.23 326.08 248.678 326.08 250.931C326.08 253.184 318.861 260.864 318.861 260.864C318.861 260.864 320.218 285.184 321.574 286.566C322.931 287.949 344.614 268.979 344.614 268.979C344.614 268.979 363.558 285.222 364.915 285.619C366.272 286.016 364.006 263.962 361.754 259.008C359.501 254.054 354.074 248.627 350.029 248.179C345.984 247.731 333.76 248.23 333.76 248.23Z" fill="#00C2D1" stroke="#263238" stroke-linecap="round" stroke-linejoin="round"/>
<path d="M329.254 241.011C329.254 241.011 330.15 258.15 331.507 261.312C332.864 264.474 342.784 279.347 345.037 278.451C347.29 277.555 355.418 261.811 355.418 259.059C355.418 256.307 357.222 242.816 357.222 242.816C357.222 242.816 339.622 245.069 329.254 241.011Z" fill="#ED9E8A" stroke="#263238" stroke-linecap="round" stroke-linejoin="round"/>
<path d="M356.506 248.32C356.89 245.274 357.222 242.79 357.222 242.79C357.222 242.79 339.622 245.043 329.254 240.986C329.254 240.986 329.408 243.878 329.677 247.501C330.129 247.757 330.59 248 331.059 248.23C339.11 252.16 348.941 252.621 356.506 248.32Z" fill="#263238" stroke="#263238" stroke-linecap="round" stroke-linejoin="round"/>
<path d="M266.726 316.339L264.755 331.226L291.891 338.445L296.32 324.454L266.726 316.339Z" fill="#00C2D1" stroke="#263238" stroke-linecap="round" stroke-linejoin="round"/>
<path d="M402.086 286.886C402.086 286.886 393.19 295.846 389.913 301.389C387.475 305.789 385.287 310.323 383.36 314.97L395.533 323.93L414.259 294.49C414.259 294.49 403.494 286.413 402.086 286.886Z" fill="#00C2D1" stroke="#263238" stroke-linecap="round" stroke-linejoin="round"/>
<path d="M414.874 268.403C414.874 268.403 411.366 260.595 411.366 256.691C411.366 252.787 416.051 239.91 416.051 238.771C416.051 237.632 419.558 234.867 420.339 238.771C420.781 241.617 420.781 244.514 420.339 247.36L421.517 250.867L429.798 236.8C430.091 236.154 430.58 235.616 431.196 235.265C431.812 234.913 432.524 234.765 433.229 234.842C436.173 235.174 434.867 239.091 434.867 239.091L430.554 251.021L430.49 251.187L438.682 235.968C438.682 235.968 441.984 234.547 443.802 236.646C445.274 238.285 443.482 240.576 443.482 240.576L436.659 255.091L445.107 243.136C445.345 242.788 445.676 242.513 446.062 242.343C446.448 242.172 446.874 242.113 447.291 242.172C447.709 242.23 448.102 242.404 448.426 242.674C448.751 242.944 448.993 243.299 449.126 243.699V243.776C449.907 246.515 442.496 257.434 442.496 257.434L448 253.184C448 253.184 450.739 250.061 451.52 253.568C451.702 254.5 451.562 255.466 451.123 256.307C450.291 257.587 440.589 266.445 440.589 266.445C440.589 266.445 433.574 271.91 432.397 272.691C431.038 273.304 429.591 273.697 428.109 273.856C428.109 273.856 422.797 309.35 420.07 315.2C417.344 321.05 409.126 326.246 403.917 325.734C398.707 325.222 390.579 319.424 394.086 308.89C397.594 298.355 414.874 268.403 414.874 268.403Z" fill="#ED9E8A" stroke="#263238" stroke-linecap="round" stroke-linejoin="round"/>
<path d="M421.517 250.88C421.517 250.88 424.627 256.346 425.024 259.072C425.421 261.798 423.846 266.483 423.846 266.483" fill="#ED9E8A"/>
<path d="M421.517 250.88C421.517 250.88 424.627 256.346 425.024 259.072C425.421 261.798 423.846 266.483 423.846 266.483" stroke="#263238" stroke-linecap="round" stroke-linejoin="round"/>
<path d="M369.843 170.24C369.843 170.24 370.752 161.664 362.163 154.88C353.574 148.096 347.277 148.109 347.737 150.822C348.107 152.622 348.877 154.315 349.99 155.776C349.99 155.776 330.137 148.096 316.608 154.496C303.078 160.896 300.39 171.52 303.091 171.52C304.5 171.447 305.902 171.757 307.149 172.416C307.149 172.416 295.872 186.406 295.424 193.613C294.976 200.819 302.195 202.637 302.195 202.637L306.253 212.557C306.253 212.557 315.213 217.971 317.977 214.81C320.742 211.648 317.069 204.442 319.334 203.085C321.6 201.728 342.374 192.269 342.374 192.269C343.928 193.739 345.778 194.861 347.8 195.561C349.821 196.26 351.969 196.521 354.099 196.326C361.779 195.878 364.019 191.808 364.019 191.808L367.629 205.338C367.629 205.338 378.009 200.832 378.905 194.522C379.351 189.993 379.049 185.422 378.009 180.992C378.009 180.992 386.969 180.992 382.515 174.669C378.061 168.346 369.843 170.24 369.843 170.24Z" fill="#263238" stroke="#263238" stroke-linecap="round" stroke-linejoin="round"/>
<path d="M366.771 207.283C366.771 207.283 371.725 198.259 375.731 205.478C379.738 212.698 372.122 219.904 368.512 222.118C364.902 224.333 366.771 207.283 366.771 207.283Z" fill="#ED9E8A" stroke="#263238" stroke-linecap="round" stroke-linejoin="round"/>
<path d="M366.694 181.478C366.694 181.478 362.176 190.502 354.061 193.203C345.945 195.904 347.289 188.237 347.289 188.237C347.289 188.237 322.483 198.618 312.115 201.318L313.011 209.446C313.011 209.446 307.597 202.675 303.539 208.538C299.481 214.4 304 221.171 308.057 224.32C312.115 227.469 314.816 224.781 314.816 224.781C314.816 224.781 319.334 239.206 331.456 245.069C343.577 250.931 359.872 249.139 366.182 234.701C372.493 220.262 366.694 181.478 366.694 181.478Z" fill="#ED9E8A" stroke="#263238" stroke-linecap="round" stroke-linejoin="round"/>
<path d="M338.419 216.499C338.419 216.499 342.029 221.466 348.339 216.499" stroke="#263238" stroke-linecap="round" stroke-linejoin="round"/>
<path d="M335.718 209.062C335.718 211.43 334.605 213.35 333.235 213.35C331.866 213.35 330.752 211.43 330.752 209.062C330.752 206.694 331.866 204.774 333.235 204.774C334.605 204.774 335.718 206.694 335.718 209.062Z" fill="#263238"/>
<path d="M354.88 209.741C354.88 212.109 353.779 214.029 352.409 214.029C351.04 214.029 349.926 212.109 349.926 209.741C349.926 207.373 351.04 205.453 352.409 205.453C353.779 205.453 354.88 207.36 354.88 209.741Z" fill="#263238"/>
<path d="M326.694 202.522C326.694 202.522 331.661 197.555 337.971 199.36" stroke="#263238" stroke-width="2" stroke-linecap="round" stroke-linejoin="round"/>
<path d="M348.339 199.36C348.339 199.36 356.019 196.211 359.168 202.97" stroke="#263238" stroke-width="2" stroke-linecap="round" stroke-linejoin="round"/>
<path d="M336.64 224.166C336.64 224.166 344.768 227.776 350.63 223.27" stroke="#263238" stroke-linecap="round" stroke-linejoin="round"/>
<path d="M64.7936 506.765C64.7936 506.765 57.9456 515.085 55.0016 517.53C52.0576 519.974 37.8752 530.253 32.4864 537.6C27.0976 544.947 32.9856 552.768 45.7088 550.81C58.432 548.851 56.4736 542.989 63.8208 540.57C71.168 538.15 75.072 535.194 76.0576 526.387C77.0432 517.581 77.0304 509.747 77.0304 509.747L64.7936 506.765Z" fill="white" stroke="#263238" stroke-linecap="round" stroke-linejoin="round"/>
<path d="M69.1967 524.877L66.7519 519.002C64.3071 513.126 57.9455 516.07 57.9455 516.07L56.7551 515.878C56.2114 516.457 55.639 517.008 55.0399 517.53C52.1087 519.987 37.9135 530.253 32.5247 537.6C27.1359 544.947 33.0239 552.768 45.7471 550.81C58.4703 548.851 56.5119 542.989 63.8591 540.57C71.2063 538.15 75.1103 535.194 76.0959 526.387C76.2367 525.107 76.3519 523.827 76.4671 522.547L69.1967 524.877Z" fill="#F9E900" stroke="#263238" stroke-linecap="round" stroke-linejoin="round"/>
<path d="M75.1487 530.829C71.7443 532.373 68.4473 534.143 65.2799 536.128C58.4319 540.531 56.4735 544.947 43.7503 546.368C36.5951 547.2 32.6911 544.307 30.6431 541.619C29.5167 547.469 35.3407 552.371 45.7087 550.771C58.4319 548.826 56.4735 542.95 63.8207 540.531C69.7343 538.56 73.4335 536.32 75.1487 530.829Z" fill="white" stroke="#263238" stroke-linecap="round" stroke-linejoin="round"/>
<path d="M207.181 506.765C207.181 506.765 214.042 515.085 216.973 517.53C219.904 519.974 234.099 530.253 239.488 537.6C244.877 544.947 239.002 552.768 226.278 550.81C213.555 548.851 215.501 542.989 208.166 540.57C200.832 538.15 196.902 535.194 195.93 526.387C194.957 517.581 194.944 509.747 194.944 509.747L207.181 506.765Z" fill="white" stroke="#263238" stroke-linecap="round" stroke-linejoin="round"/>
<path d="M202.778 524.877L205.222 519.002C207.68 513.126 214.042 516.07 214.042 516.07L215.232 515.878C215.885 516.544 216.512 517.158 216.973 517.53C219.917 519.987 234.099 530.253 239.488 537.6C244.877 544.947 239.002 552.768 226.278 550.81C213.555 548.851 215.501 542.989 208.166 540.57C200.832 538.15 196.902 535.194 195.93 526.387C195.789 525.107 195.661 523.827 195.558 522.547L202.778 524.877Z" fill="#F9E900" stroke="#263238" stroke-linecap="round" stroke-linejoin="round"/>
<path d="M196.838 530.829C200.24 532.37 203.533 534.141 206.694 536.128C213.542 540.531 215.501 544.947 228.237 546.368C235.392 547.2 239.296 544.307 241.344 541.619C242.458 547.469 236.646 552.371 226.278 550.771C213.542 548.826 215.501 542.95 208.166 540.531C202.24 538.56 198.554 536.32 196.838 530.829Z" fill="white" stroke="#263238" stroke-linecap="round" stroke-linejoin="round"/>
<path d="M106.445 345.664L61.376 500.89L85.8368 505.293L143.718 395.43L156.928 397.389L192.051 517.043L217.011 514.598L197.978 367.194L152.947 346.15L106.445 345.664Z" fill="#0A1045" stroke="#0A1045" stroke-linecap="round" stroke-linejoin="round"/>
<path d="M192.589 240.435C192.589 240.435 170.074 231.13 158.323 229.171C146.573 227.213 138.752 228.198 133.862 231.616C128.973 235.034 125.542 251.686 127.987 257.562C129.26 260.39 130.242 263.341 130.918 266.368C130.918 266.368 119.168 318.72 118.682 321.677C118.195 324.634 107.917 327.552 107.917 329.997C107.917 332.442 104.96 347.622 104.96 347.622C104.96 347.622 124.045 356.429 154.88 363.277C185.715 370.125 198.925 369.677 198.925 369.677C198.925 369.677 199.411 359.898 199.91 353.037C200.41 346.176 197.952 341.299 197.952 339.827C197.952 338.355 215.565 290.394 215.565 290.394L231.232 314.381L226.829 363.814C226.829 363.814 212.634 368.704 211.648 372.621C210.662 376.538 208.23 381.914 208.23 384.371C208.23 386.829 208.717 390.234 212.634 389.747C216.55 389.261 216.55 381.914 216.55 381.914L218.509 380.454L216.55 400.026C216.947 401.107 217.688 402.029 218.659 402.648C219.631 403.268 220.778 403.552 221.926 403.456C226.342 403.456 225.357 399.053 225.357 399.053L232.205 398.067C232.205 398.067 240.038 396.608 241.997 394.15C243.955 391.693 246.886 375.066 246.886 371.11C246.908 368.492 247.075 365.877 247.386 363.277C247.386 363.277 260.595 315.802 259.123 310.426C257.651 305.05 238.08 262.4 234.24 257.562C230.4 252.723 211.2 244.838 205.363 243.853C201.025 243.036 196.755 241.894 192.589 240.435Z" fill="#6F4439" stroke="#263238" stroke-linecap="round" stroke-linejoin="round"/>
<path d="M225.382 399.014L230.131 381.85" stroke="#263238" stroke-linecap="round" stroke-linejoin="round"/>
<path d="M232.23 398.029L236.851 384.781" stroke="#263238" stroke-linecap="round" stroke-linejoin="round"/>
<path d="M239.373 395.277L241.882 385.626" stroke="#263238" stroke-linecap="round" stroke-linejoin="round"/>
<path d="M234.24 257.562C230.323 252.672 211.2 244.838 205.363 243.853C201.043 243.034 196.789 241.891 192.64 240.435C192.64 240.435 170.125 231.13 158.374 229.171C146.624 227.213 138.803 228.198 133.914 231.616C129.024 235.034 125.594 251.686 128.038 257.562C129.312 260.39 130.294 263.341 130.97 266.368C130.97 266.368 119.168 318.72 118.682 321.677C118.195 324.634 107.917 327.552 107.917 329.997C107.917 332.442 104.96 347.622 104.96 347.622C104.96 347.622 124.045 356.429 154.88 363.277C185.715 370.125 198.925 369.677 198.925 369.677C198.925 369.677 199.411 359.898 199.91 353.037C200.41 346.176 197.952 341.299 197.952 339.827C197.952 338.355 215.565 290.394 215.565 290.394L226.278 306.803L250.125 289.395C243.942 275.802 236.454 260.39 234.24 257.562Z" fill="white" stroke="#263238" stroke-linecap="round" stroke-linejoin="round"/>
<path d="M226.304 306.765L250.15 289.357C248.23 285.146 246.182 280.768 244.198 276.634L244.07 276.365C243.738 275.674 243.405 274.995 243.085 274.317C243.008 274.15 242.931 273.984 242.842 273.83L241.971 272.026L241.715 271.501C241.421 270.912 241.152 270.349 240.87 269.798L240.627 269.312L239.731 267.507C239.683 267.425 239.641 267.339 239.603 267.251C239.27 266.586 238.938 265.971 238.618 265.318L238.515 265.126C238.246 264.602 237.978 264.102 237.734 263.616L237.44 263.078C237.261 262.72 237.069 262.374 236.89 262.054C236.71 261.734 236.698 261.683 236.595 261.517L236.134 260.672L235.853 260.186L235.443 259.469L235.2 259.072L234.829 258.47L234.65 258.202C234.509 257.979 234.355 257.765 234.189 257.562C230.272 252.672 211.149 244.838 205.312 243.853C200.991 243.034 196.738 241.891 192.589 240.435C192.589 240.435 170.074 231.13 158.323 229.171C146.573 227.213 138.752 228.198 133.862 231.616C128.973 235.034 125.542 251.686 127.987 257.562C129.26 260.39 130.242 263.341 130.918 266.368C130.918 266.368 129.152 274.266 126.963 284.083C140.467 280.077 178.432 267.763 191.616 252.173L195.034 252.672C195.034 252.672 194.227 288.128 206.157 316.275C210.752 303.475 215.59 290.355 215.59 290.355L226.304 306.765Z" fill="#F9E900" stroke="#263238" stroke-linecap="round" stroke-linejoin="round"/>
<path d="M130.918 266.368C130.918 266.368 142.438 266.278 145.869 248.038L130.918 266.368Z" fill="#F9E900"/>
<path d="M130.918 266.368C130.918 266.368 142.438 266.278 145.869 248.038" stroke="#263238" stroke-linecap="round" stroke-linejoin="round"/>
<path d="M224.205 269.722L215.59 290.355L232.576 270.707" fill="#F9E900"/>
<path d="M224.205 269.722L215.59 290.355L232.576 270.707" stroke="#263238" stroke-linecap="round" stroke-linejoin="round"/>
<path d="M208.09 244.48C206.195 244.134 204.25 243.712 202.15 243.2C197.235 242.061 192.589 240.41 192.589 240.41C192.589 240.41 185.165 237.338 176.627 234.355C176.282 246.042 176.627 268.493 184.307 274.035C192.96 280.435 212.634 256.896 219.174 248.576C215.563 246.994 211.862 245.626 208.09 244.48Z" fill="white" stroke="#263238" stroke-linecap="round" stroke-linejoin="round"/>
<path d="M182.31 231.68C182.31 231.68 178.394 262.029 186.227 268.39C194.061 274.752 216.09 247.834 216.09 247.834C216.09 247.834 191.117 246.797 182.31 231.68Z" fill="#6F4439" stroke="#263238" stroke-linecap="round" stroke-linejoin="round"/>
<path d="M181.632 199.526C181.632 199.526 176.704 190.784 172.877 199.526C169.05 208.269 174.528 214.886 178.893 215.386C183.258 215.885 181.632 199.526 181.632 199.526Z" fill="#6F4439" stroke="#263238" stroke-linecap="round" stroke-linejoin="round"/>
<path d="M235.622 213.325C235.622 213.325 244.224 208.205 243.238 217.638C242.253 227.072 234.278 230.144 230.195 228.467C226.112 226.79 235.622 213.325 235.622 213.325Z" fill="#6F4439" stroke="#263238" stroke-linecap="round" stroke-linejoin="round"/>
<path d="M184.32 182.579C184.32 182.579 177.216 207.181 177.766 222.49C178.317 237.798 188.147 249.28 196.966 252.557C205.786 255.834 222.118 245.453 228.134 235.072C234.15 224.691 243.494 200.077 242.342 188.045C241.19 176.013 223.757 166.17 210.637 165.632C197.517 165.094 186.547 169.459 184.32 182.579Z" fill="#6F4439" stroke="#263238" stroke-linecap="round" stroke-linejoin="round"/>
<path d="M189.286 205.542C193.409 205.069 197.551 206.247 200.806 208.819" stroke="#263238" stroke-width="2" stroke-linecap="round" stroke-linejoin="round"/>
<path d="M188.736 196.787C193.468 194.868 198.762 194.868 203.494 196.787" stroke="#263238" stroke-linecap="round" stroke-linejoin="round"/>
<path d="M213.888 213.76C213.888 213.76 222.093 213.21 225.408 218.675" stroke="#263238" stroke-width="2" stroke-linecap="round" stroke-linejoin="round"/>
<path d="M218.266 203.354C220.597 203.322 222.894 203.915 224.919 205.069C226.945 206.224 228.625 207.898 229.786 209.92" stroke="#263238" stroke-linecap="round" stroke-linejoin="round"/>
<path d="M199.13 214.835C199.13 214.835 197.491 219.213 202.97 221.402C204.372 222.074 205.968 222.224 207.47 221.822C208.973 221.421 210.282 220.495 211.162 219.213" stroke="#263238" stroke-linecap="round" stroke-linejoin="round"/>
<path d="M212.659 226.56C210.993 227.486 209.137 228.019 207.233 228.116C205.33 228.214 203.429 227.874 201.677 227.123C197.504 225.408 197.184 222.336 193.523 220.365C189.862 218.394 186.765 221.21 188.173 227.405C189.581 233.6 196.902 237.248 203.93 238.093C210.957 238.938 216.883 235.277 217.165 230.771C217.446 226.266 212.659 226.56 212.659 226.56Z" fill="white" stroke="#263238" stroke-linecap="round" stroke-linejoin="round"/>
<path d="M188.16 221.53C191.017 226.621 195.61 230.514 201.101 232.499C206.228 234.384 211.891 234.182 216.87 231.936" stroke="#263238" stroke-linecap="round" stroke-linejoin="round"/>
<path d="M242.317 188.045C241.229 176.013 223.731 166.17 210.611 165.632C197.491 165.094 186.547 169.472 184.358 182.579C184.358 182.579 182.618 188.621 180.928 196.582C181.999 195.231 183.248 194.029 184.64 193.011C189.862 189.094 191.168 189.965 191.168 184.742C191.168 179.52 194.662 173.414 198.579 172.979C202.496 172.544 205.99 173.85 214.259 177.766C222.528 181.683 231.258 180.813 235.174 183.872C239.091 186.931 240.845 191.706 236.454 197.376C232.064 203.046 234.714 206.528 234.714 209.139C234.714 211.75 233.843 216.973 235.994 217.421C239.91 206.95 242.97 195.251 242.317 188.045Z" fill="#263238"/>
<path d="M105.958 234.074C105.958 234.074 106.445 251.686 109.875 259.034C113.306 266.381 124.557 269.274 132.915 262.95C141.274 256.627 138.79 244.838 135.859 238.963C132.928 233.088 130.957 229.67 130.957 229.67L105.958 234.074Z" fill="#6F4439" stroke="#263238" stroke-linecap="round" stroke-linejoin="round"/>
<path d="M136.307 235.046L151.475 223.795C153.434 222.323 155.392 217.395 152.461 215.475C149.53 213.555 146.061 216.934 146.061 216.934C146.061 216.934 135.283 222.323 133.261 222.323C131.238 222.323 128.371 216.448 126.861 214.003C125.35 211.558 122.112 194.918 121.126 192C120.141 189.082 113.792 190.042 113.792 194.445C113.792 198.848 116.723 211.584 116.723 211.584L109.875 212.557C109.875 212.557 104 198.4 102.528 195.405C101.056 192.41 94.7072 193.446 95.68 197.363C96.6528 201.28 102.08 215.475 102.08 215.475H98.1248C98.1248 215.475 88.832 204.211 86.8736 203.725C84.9152 203.238 82.9568 206.17 86.3872 211.059C89.8176 215.949 94.208 221.299 94.208 221.299C94.208 221.299 83.968 220.326 82.4704 219.84C80.9728 219.354 77.568 223.258 81.4848 225.216C85.2904 226.831 89.2199 228.136 93.2351 229.12C93.2351 229.12 100.083 238.426 106.944 237.44C110.803 236.939 114.583 235.954 118.195 234.509C118.195 234.509 125.043 239.949 136.307 235.046Z" fill="#6F4439" stroke="#263238" stroke-linecap="round" stroke-linejoin="round"/>
<path d="M185.203 503.334L190.579 517.53L218.483 515.085V494.042L185.203 503.334Z" fill="white" stroke="#263238" stroke-linecap="round" stroke-linejoin="round"/>
<path d="M60.3905 494.042L58.4321 507.75L82.4193 515.571L93.6705 498.931L60.3905 494.042Z" fill="white" stroke="#263238" stroke-linecap="round" stroke-linejoin="round"/>
</svg>
