<svg width="333" height="452" viewBox="0 0 333 573" fill="none" xmlns="http://www.w3.org/2000/svg">
<path d="M276.535 341.053L285.38 332.772C285.604 332.565 285.774 332.306 285.875 332.018C285.975 331.73 286.003 331.422 285.956 331.121L284.215 319.14C284.165 318.795 284.211 318.444 284.35 318.125C284.489 317.805 284.714 317.531 285 317.333C285.286 317.135 285.622 317.02 285.969 317.002C286.317 316.985 286.662 317.064 286.967 317.233L297.578 323.082C297.846 323.225 298.145 323.299 298.449 323.299C298.752 323.299 299.051 323.225 299.319 323.082L310.161 317.668C310.473 317.511 310.822 317.444 311.17 317.476C311.517 317.508 311.849 317.636 312.128 317.846C312.406 318.057 312.62 318.341 312.745 318.667C312.871 318.993 312.902 319.347 312.836 319.69L310.545 331.594C310.482 331.891 310.495 332.199 310.583 332.49C310.67 332.78 310.828 333.045 311.044 333.258L319.543 341.885C319.79 342.134 319.963 342.446 320.041 342.788C320.119 343.129 320.1 343.486 319.985 343.817C319.87 344.148 319.665 344.44 319.392 344.659C319.119 344.879 318.79 345.018 318.442 345.06L306.423 346.557C306.123 346.594 305.835 346.703 305.586 346.875C305.336 347.046 305.132 347.275 304.99 347.543L299.409 358.308C299.248 358.618 299.003 358.876 298.702 359.054C298.402 359.232 298.057 359.322 297.708 359.314C297.359 359.306 297.019 359.2 296.727 359.009C296.435 358.817 296.202 358.548 296.055 358.231L290.935 347.261C290.808 346.987 290.615 346.748 290.374 346.565C290.133 346.382 289.851 346.261 289.553 346.212L277.598 344.228C277.256 344.176 276.935 344.03 276.67 343.807C276.405 343.584 276.207 343.293 276.097 342.965C275.987 342.637 275.97 342.285 276.048 341.948C276.125 341.61 276.293 341.301 276.535 341.053Z" fill="#F9E900"/>
<path d="M311.966 380.055L316.215 376.087C316.322 375.987 316.403 375.862 316.452 375.724C316.501 375.586 316.516 375.439 316.497 375.294L315.627 369.546C315.606 369.386 315.629 369.223 315.693 369.075C315.757 368.926 315.86 368.798 315.992 368.704C316.123 368.609 316.277 368.552 316.438 368.538C316.599 368.524 316.761 368.554 316.907 368.625L322.027 371.428C322.157 371.497 322.302 371.534 322.449 371.534C322.596 371.534 322.741 371.497 322.871 371.428L328.068 368.868C328.218 368.793 328.385 368.762 328.552 368.777C328.719 368.793 328.878 368.855 329.011 368.956C329.144 369.057 329.246 369.194 329.306 369.35C329.366 369.507 329.38 369.676 329.348 369.841L328.247 375.562C328.221 375.704 328.229 375.851 328.272 375.989C328.314 376.127 328.389 376.253 328.491 376.356L332.574 380.503C332.693 380.622 332.776 380.772 332.813 380.935C332.851 381.099 332.842 381.27 332.788 381.429C332.733 381.588 332.635 381.728 332.504 381.834C332.373 381.939 332.216 382.006 332.049 382.026L326.276 382.743C326.13 382.762 325.991 382.816 325.871 382.901C325.75 382.986 325.652 383.099 325.585 383.23L322.91 388.35C322.836 388.501 322.722 388.629 322.579 388.718C322.437 388.808 322.272 388.855 322.103 388.855C321.935 388.855 321.77 388.808 321.628 388.718C321.485 388.629 321.37 388.501 321.297 388.35L318.827 383.076C318.765 382.943 318.672 382.828 318.556 382.738C318.441 382.649 318.305 382.589 318.161 382.564L312.427 381.617C312.26 381.587 312.105 381.512 311.978 381.4C311.852 381.287 311.76 381.141 311.712 380.979C311.664 380.816 311.662 380.644 311.707 380.481C311.752 380.318 311.842 380.17 311.966 380.055Z" fill="#F9E900"/>
<path d="M71.4672 283.066L62.4432 291.168C62.2173 291.369 62.0443 291.622 61.9394 291.906C61.8345 292.189 61.8009 292.494 61.8416 292.794L63.3904 304.813C63.435 305.159 63.382 305.51 63.2373 305.827C63.0927 306.145 62.8622 306.415 62.5719 306.608C62.2816 306.801 61.9431 306.909 61.5947 306.92C61.2462 306.931 60.9017 306.844 60.6 306.669L50.1168 300.653C49.8559 300.497 49.5601 300.408 49.2561 300.394C48.9522 300.381 48.6497 300.443 48.376 300.576L37.432 305.773C37.1158 305.92 36.7649 305.977 36.4185 305.936C36.0722 305.895 35.7439 305.759 35.4704 305.543C35.1969 305.326 34.9889 305.038 34.8697 304.71C34.7504 304.383 34.7247 304.028 34.7952 303.687L37.3552 291.834C37.4173 291.537 37.4067 291.229 37.3242 290.937C37.2417 290.645 37.0899 290.378 36.8816 290.157L28.5616 281.351C28.319 281.099 28.1525 280.784 28.0811 280.442C28.0097 280.1 28.0364 279.744 28.1581 279.417C28.2798 279.089 28.4916 278.802 28.7691 278.59C29.0465 278.377 29.3784 278.247 29.7264 278.215L41.784 276.935C42.0845 276.903 42.3728 276.799 42.6245 276.631C42.8763 276.464 43.0841 276.239 43.2304 275.975L49.0288 265.338C49.1956 265.031 49.4454 264.776 49.7495 264.604C50.0537 264.431 50.4002 264.348 50.7495 264.362C51.0989 264.377 51.4371 264.49 51.7257 264.687C52.0144 264.884 52.2419 265.159 52.3824 265.479L57.2976 276.551C57.4165 276.829 57.6029 277.072 57.8398 277.26C58.0767 277.448 58.3567 277.574 58.6544 277.626L70.5712 279.866C70.9075 279.935 71.2183 280.095 71.4695 280.329C71.7207 280.563 71.9025 280.862 71.9951 281.193C72.0876 281.523 72.0873 281.873 71.9942 282.203C71.9011 282.534 71.7188 282.832 71.4672 283.066Z" fill="#F9E900"/>
<path d="M36.8685 243.335L32.5421 247.175C32.4333 247.271 32.3497 247.393 32.2984 247.529C32.2471 247.665 32.2297 247.811 32.2477 247.956L33.0029 253.729C33.0237 253.895 32.9975 254.063 32.9273 254.215C32.8572 254.367 32.7458 254.497 32.6059 254.589C32.4659 254.681 32.3031 254.731 32.1357 254.736C31.9683 254.74 31.8031 254.697 31.6589 254.612L26.6285 251.706C26.4985 251.637 26.3534 251.6 26.2061 251.6C26.0587 251.6 25.9136 251.637 25.7837 251.706L20.5357 254.215C20.3838 254.292 20.2131 254.325 20.0435 254.308C19.8738 254.292 19.7124 254.228 19.578 254.123C19.4436 254.018 19.3419 253.877 19.2849 253.717C19.2278 253.556 19.2176 253.383 19.2557 253.217L20.4717 247.521C20.502 247.378 20.4968 247.229 20.4566 247.089C20.4165 246.948 20.3425 246.82 20.2413 246.714L16.2477 242.49C16.1316 242.368 16.0521 242.217 16.0183 242.052C15.9845 241.887 15.9977 241.716 16.0565 241.559C16.1152 241.401 16.2171 241.263 16.3505 241.161C16.4839 241.058 16.6435 240.996 16.8109 240.98L22.5965 240.378C22.7411 240.36 22.8797 240.309 23.0016 240.229C23.1236 240.149 23.2258 240.043 23.3005 239.917L26.0781 234.797C26.1573 234.649 26.2768 234.525 26.423 234.441C26.5692 234.357 26.7361 234.316 26.9046 234.323C27.073 234.33 27.2361 234.384 27.3752 234.479C27.5143 234.574 27.6237 234.707 27.6909 234.861L30.0461 240.173C30.1069 240.308 30.1991 240.425 30.315 240.517C30.4308 240.608 30.5668 240.67 30.7117 240.698L36.4205 241.773C36.589 241.8 36.7465 241.874 36.8744 241.987C37.0023 242.1 37.0952 242.247 37.1423 242.411C37.1893 242.575 37.1885 242.749 37.14 242.913C37.0915 243.077 36.9973 243.223 36.8685 243.335Z" fill="#F9E900"/>
<path d="M250.459 547.939L251.454 507.101L214.959 506.472L219.891 549.035L250.459 547.939Z" fill="#FFBF9D"/>
<path d="M253.606 540.835V543.21C253.606 543.21 292.557 559.245 292.902 566.877H215.264L216.706 540.267C228.153 545.707 240.21 546.336 253.606 540.835Z" fill="#455A64"/>
<path d="M289.877 562.818C289.877 562.818 293.307 564.38 292.881 566.877H215.243L215.588 560.483" fill="#E0E0E0"/>
<path d="M252.852 552.791C252.751 552.791 252.588 552.222 252.649 551.248C252.75 549.983 253.147 548.76 253.806 547.676C254.463 546.605 255.359 545.702 256.425 545.037C257.257 544.55 257.845 544.448 257.866 544.55C256.604 545.595 255.478 546.795 254.517 548.122C253.773 549.604 253.214 551.172 252.852 552.791Z" fill="#263238"/>
<path d="M248.795 551.877C248.698 550.105 249.143 548.346 250.072 546.834C251 545.322 252.367 544.128 253.991 543.413C254.133 543.636 252.266 544.915 250.845 547.269C250.075 548.765 249.39 550.303 248.795 551.877Z" fill="#263238"/>
<path d="M258.841 554.719C258.512 554.048 258.322 553.317 258.284 552.57C258.245 551.823 258.359 551.077 258.618 550.375C258.742 549.641 259.015 548.94 259.42 548.315C259.824 547.69 260.353 547.155 260.972 546.742C261.175 546.904 259.998 548.406 259.43 550.598C258.861 552.791 259.085 554.658 258.841 554.719Z" fill="#263238"/>
<path d="M258.048 545.301C257.357 544.564 256.923 543.625 256.81 542.622C256.595 541.566 256.487 540.492 256.485 539.415C256.485 538.806 256.485 538.177 256.485 537.507C256.484 537.146 256.518 536.785 256.586 536.431C256.638 536.202 256.739 535.986 256.883 535.801C257.027 535.615 257.21 535.463 257.419 535.355C257.656 535.264 257.918 535.252 258.163 535.321C258.408 535.391 258.624 535.538 258.779 535.741C259.016 536.051 259.176 536.412 259.245 536.796C259.406 537.421 259.502 538.06 259.53 538.704C259.584 539.808 259.454 540.912 259.144 541.972C258.952 542.966 258.464 543.879 257.743 544.591C257.743 544.591 258.21 543.555 258.576 541.83C258.786 540.83 258.848 539.804 258.758 538.786C258.716 538.188 258.614 537.597 258.454 537.02C258.332 536.431 257.967 535.985 257.743 536.147C257.52 536.309 257.317 536.878 257.297 537.547V539.394C257.245 540.432 257.293 541.472 257.439 542.5C257.601 544.246 258.048 545.22 258.048 545.301Z" fill="#263238"/>
<path d="M258.558 545.057C258.558 545.057 258.436 545.199 258.152 545.341L257.908 545.463V545.179C258.207 544.088 258.695 543.057 259.349 542.134C259.837 541.399 260.402 540.719 261.034 540.104C261.395 539.766 261.775 539.447 262.171 539.15C262.403 538.968 262.664 538.824 262.942 538.724C263.122 538.67 263.312 538.657 263.498 538.685C263.684 538.713 263.861 538.782 264.018 538.886C264.212 539.047 264.348 539.268 264.403 539.514C264.458 539.761 264.43 540.018 264.322 540.246C264.192 540.564 264.021 540.865 263.815 541.14C263.459 541.63 263.065 542.091 262.638 542.52C261.913 543.231 261.093 543.839 260.202 544.326C259.433 544.838 258.528 545.107 257.604 545.097C257.604 544.976 258.558 544.671 259.918 543.798C260.712 543.278 261.441 542.665 262.09 541.972C262.473 541.565 262.826 541.131 263.145 540.673C263.531 540.186 263.713 539.637 263.531 539.597C263.348 539.556 262.191 540.206 261.501 540.713C260.886 541.27 260.322 541.882 259.816 542.54C259.166 543.397 258.589 544.307 258.091 545.26L257.929 545.097C258.395 545.016 258.537 545.016 258.558 545.057Z" fill="#263238"/>
<path d="M110.935 534.543L133.81 503.691L106.124 483.434L86.8621 518.813L110.935 534.543Z" fill="#FFBF9D"/>
<path d="M117.188 530.768L115.889 532.595C115.889 532.595 137.161 566.004 133.284 572.053L73.6702 529.956L89.1774 510.267C92.0404 515.543 96.0375 520.117 100.881 523.662C105.725 527.207 111.294 529.634 117.188 530.768Z" fill="#455A64"/>
<path d="M133.162 567.303C133.162 567.303 134.968 570.368 133.284 572.052L73.6702 529.956L77.4049 525.145" fill="#E0E0E0"/>
<path d="M110.141 539.557C110.141 539.557 110.262 538.988 110.831 538.278C111.589 537.354 112.556 536.624 113.652 536.147C114.737 535.672 115.92 535.463 117.103 535.538C117.996 535.538 118.503 535.842 118.463 535.944C116.926 536.055 115.411 536.369 113.957 536.878C112.581 537.614 111.3 538.514 110.141 539.557Z" fill="#263238"/>
<path d="M107.525 536.654C108.313 535.162 109.642 534.029 111.239 533.488C112.708 532.698 114.428 532.516 116.03 532.98C114.503 533.298 112.998 533.712 111.524 534.218C110.145 534.952 108.81 535.766 107.525 536.654Z" fill="#263238"/>
<path d="M113.714 544.265C113.819 543.575 114.066 542.913 114.44 542.323C114.814 541.732 115.306 541.226 115.885 540.835C116.378 540.337 116.967 539.946 117.616 539.684C118.265 539.422 118.961 539.296 119.661 539.313C119.661 539.536 118.017 540.043 116.393 541.343C114.769 542.642 113.937 544.367 113.714 544.265Z" fill="#263238"/>
<path d="M118.178 536.593C118.04 535.655 118.219 534.698 118.686 533.873C119.08 532.941 119.577 532.056 120.168 531.234C120.492 530.747 120.837 530.28 121.203 529.793C121.402 529.516 121.626 529.258 121.873 529.022C122.03 528.866 122.223 528.749 122.435 528.682C122.647 528.615 122.871 528.599 123.09 528.636C123.325 528.683 123.536 528.81 123.688 528.995C123.84 529.18 123.923 529.412 123.923 529.651C123.939 530.019 123.876 530.385 123.74 530.727C123.508 531.29 123.229 531.833 122.908 532.351C122.363 533.223 121.677 533.998 120.878 534.644C119.498 535.74 118.422 536.004 118.381 535.903C118.341 535.801 119.315 535.355 120.513 534.218C121.225 533.57 121.834 532.817 122.319 531.985C122.611 531.503 122.856 530.993 123.05 530.463C123.253 529.956 123.212 529.408 122.948 529.408C122.685 529.408 122.238 529.732 121.873 530.24L120.797 531.64C120.212 532.417 119.689 533.238 119.234 534.096C118.422 535.558 118.3 536.613 118.178 536.593Z" fill="#263238"/>
<path d="M118.709 536.695C118.709 536.695 118.547 536.695 118.242 536.695H118.019L118.222 536.512C119.053 535.848 119.985 535.32 120.982 534.949C121.749 534.658 122.545 534.454 123.357 534.34C123.82 534.261 124.288 534.213 124.758 534.198C125.032 534.184 125.307 534.219 125.57 534.3C125.742 534.35 125.9 534.441 126.031 534.565C126.161 534.688 126.261 534.841 126.321 535.01C126.377 535.241 126.357 535.483 126.266 535.702C126.175 535.921 126.016 536.105 125.813 536.228C125.53 536.393 125.231 536.529 124.92 536.634C124.385 536.817 123.835 536.953 123.276 537.04C122.342 537.19 121.389 537.19 120.455 537.04C119.585 537.008 118.741 536.734 118.019 536.248C118.019 536.106 118.993 536.431 120.516 536.492C121.408 536.519 122.3 536.444 123.175 536.269C123.685 536.162 124.186 536.019 124.677 535.842C125.225 535.66 125.671 535.355 125.549 535.213C125.549 534.767 124.21 534.949 123.52 535.01C122.749 535.107 121.989 535.27 121.246 535.497C120.277 535.808 119.333 536.194 118.425 536.654V536.451C118.608 536.593 118.729 536.654 118.709 536.695Z" fill="#263238"/>
<path d="M230.667 51.586L222.934 107.181L218.103 128.574L209.984 193.181L179.335 188.837C179.335 188.837 192.001 122.769 194.111 103.263C196.222 83.7574 207.67 45.9839 207.67 45.9839L230.667 51.586Z" fill="#FFBF9D"/>
<path d="M206.617 49.1704C206.617 49.1704 203.085 36.992 202.233 31.5726C201.38 26.1531 195.494 16.3292 195.494 16.3292C196.496 15.76 197.635 15.4762 198.787 15.5084C199.939 15.5406 201.061 15.8876 202.03 16.5119C204.932 18.7649 211.285 28.9136 213.092 29.076C215.494 28.5851 217.612 27.1805 218.998 25.1586C219.222 24.164 225.453 0.578365 227.929 0.0912266C230.406 -0.395912 233.491 1.10609 233.166 3.68387C232.841 6.26164 227.848 18.7852 229.594 19.1708C231.339 19.5565 238.098 4.00863 240.392 4.2928C240.969 4.30973 241.535 4.45536 242.049 4.71904C242.562 4.98272 243.011 5.35778 243.361 5.81685C243.711 6.27592 243.954 6.8074 244.072 7.37247C244.191 7.93755 244.182 8.52195 244.045 9.08299C243.213 11.5187 238.139 23.2912 239.58 23.8595C241.021 24.4279 245.832 11.6811 247.435 11.4375C249.039 11.1939 250.784 14.0559 250.196 15.497C249.607 16.9381 243.152 32.3236 244.979 33.5211C246.806 34.7187 252.976 27.4319 254.275 26.9853C255.98 26.3764 257.34 29.9285 254.275 32.9528C253.321 33.9068 232.171 54.9755 229.533 57.3097C226.894 59.6439 206.617 49.1704 206.617 49.1704Z" fill="#FFBF9D"/>
<path d="M236.88 39.0622C235.523 38.5661 234.057 38.4469 232.638 38.7172C229.144 39.1597 225.922 40.8286 223.545 43.4262L223.017 44.0351L223.93 44.1975C222.931 41.0846 221.369 38.1814 219.323 35.632C217.739 33.6022 216.542 32.7497 216.461 32.8512C219.218 36.3774 221.404 40.316 222.936 44.5222L223.22 45.4356L223.849 44.7049L224.336 44.1366C226.577 41.7046 229.548 40.0663 232.8 39.4682C235.256 39.0013 236.86 39.2449 236.88 39.0622Z" fill="#FF9A6C"/>
<path d="M213.192 198.012L215.73 149.785C215.73 149.785 177.814 148.689 178.22 150.982C178.626 153.276 171.481 188.127 171.481 188.127L213.192 198.012Z" fill="#FF725E"/>
<path d="M27.7953 133.506C28.3637 131.923 30.3325 131.476 31.8548 131.05C37.9441 129.203 41.4961 122.931 43.5665 116.842C46.469 108.297 47.5042 99.1425 50.9547 90.8003C54.4053 82.458 61.1034 74.5623 69.9531 73.8316C77.3008 73.1618 84.4455 77.8911 87.9773 84.4675L90.7377 107.647C87.5416 124.336 78.1057 139.179 64.351 149.155C59.7029 152.464 54.2023 155.245 48.6205 154.25C47.6387 154.138 46.6916 153.82 45.8415 153.317C44.9914 152.813 44.2576 152.135 43.6882 151.327C41.8615 148.364 43.465 144.487 45.0888 141.361C39.9991 141.674 34.9268 140.518 30.4746 138.032C28.9117 137.058 27.1255 135.434 27.7953 133.506Z" fill="#263238"/>
<path d="M94.8165 84.0822C94.1911 83.3056 93.3317 82.7517 92.3662 82.503C91.4006 82.2543 90.3806 82.324 89.4579 82.7019C87.6044 83.5228 86.0109 84.8354 84.8504 86.4976C81.0129 91.4229 78.6483 97.3342 78.0305 103.547C77.4759 107.014 78.1432 110.566 79.9181 113.595C81.2172 115.503 83.7746 116.903 85.7638 115.726C87.7529 114.549 87.7935 112.011 88.0168 109.819C88.5775 100.947 91.0641 92.3026 95.3036 84.4881" fill="#FF725E"/>
<path d="M87.3912 93.0735C95.5102 77.14 119.096 63.8858 137.871 69.7315C150.273 66.22 170.347 67.7017 183.987 80.2252C180.455 80.7936 178.08 79.8193 174.548 80.3876C189.487 87.9585 191.761 118.08 184.149 135.962L120.882 174.284C107.486 170.711 96.8295 159.649 90.5779 146.943C82.6619 130.806 79.4346 109.048 87.3912 93.0735Z" fill="#263238"/>
<path d="M175.561 97.2958C171.116 83.189 152.543 72.7156 139.025 77.7899L112.801 90.2728C108.128 92.5705 104.411 96.4373 102.3 101.198C100.189 105.958 99.8179 111.308 101.252 116.314L109.838 131.517L130.135 200.529H124.919C124.919 200.529 136.468 230.345 161.292 222.105C183.619 214.696 176.19 190.339 176.19 190.339L169.898 169.636C169.898 169.636 188.815 164.196 186.542 139.352C185.385 127.113 180.513 112.986 175.561 97.2958Z" fill="#FFBF9D"/>
<path d="M172.497 122.85C172.71 123.625 172.618 124.452 172.241 125.162C171.863 125.871 171.229 126.41 170.467 126.666C170.087 126.79 169.687 126.835 169.289 126.8C168.891 126.764 168.505 126.647 168.154 126.457C167.802 126.268 167.493 126.008 167.246 125.695C166.998 125.382 166.816 125.022 166.712 124.636C166.493 123.859 166.582 123.026 166.959 122.312C167.337 121.598 167.976 121.057 168.742 120.8C169.123 120.679 169.524 120.637 169.922 120.676C170.32 120.714 170.706 120.833 171.057 121.024C171.407 121.216 171.716 121.476 171.963 121.79C172.211 122.104 172.392 122.464 172.497 122.85Z" fill="#263238"/>
<path d="M174.827 111.605C174.584 112.052 172.229 110.936 169.367 111.605C166.505 112.275 164.719 114.285 164.334 113.98C163.948 113.676 164.334 113.107 165.105 112.194C166.134 111.01 167.513 110.185 169.043 109.84C170.541 109.492 172.114 109.656 173.508 110.306C174.523 110.814 174.97 111.403 174.827 111.605Z" fill="#263238"/>
<path d="M147.184 128.148C147.403 128.926 147.315 129.758 146.937 130.472C146.559 131.186 145.921 131.728 145.155 131.984C144.775 132.111 144.374 132.159 143.975 132.124C143.576 132.09 143.189 131.974 142.837 131.784C142.485 131.593 142.176 131.333 141.928 131.018C141.681 130.704 141.501 130.341 141.4 129.954C141.181 129.177 141.269 128.344 141.647 127.63C142.025 126.916 142.663 126.375 143.429 126.118C143.809 125.991 144.21 125.943 144.609 125.978C145.008 126.012 145.395 126.128 145.747 126.319C146.099 126.509 146.408 126.769 146.656 127.084C146.903 127.399 147.083 127.761 147.184 128.148Z" fill="#263238"/>
<path d="M145.317 118.324C145.054 118.77 142.699 117.654 139.837 118.324C136.975 118.994 135.189 120.983 134.803 120.698C134.418 120.414 134.803 119.826 135.575 118.912C136.638 117.709 138.062 116.883 139.634 116.558C141.124 116.207 142.689 116.364 144.079 117.004C144.993 117.532 145.439 118.121 145.317 118.324Z" fill="#263238"/>
<path d="M169.775 169.697C158.873 172.682 147.345 172.492 136.548 169.149C136.548 169.149 148.726 183.783 171.337 175.583L169.775 169.697Z" fill="#FF9A6C"/>
<path d="M144.262 107.566C144.12 108.886 140.609 108.825 136.712 110.124C132.814 111.423 129.79 113.432 129.08 112.377C128.755 111.869 129.08 110.591 130.257 109.149C131.637 107.428 133.494 106.15 135.595 105.476C137.612 104.811 139.789 104.811 141.806 105.476C143.41 106.044 144.384 107.018 144.262 107.566Z" fill="#263238"/>
<path d="M172.801 99.9549C172.456 101.173 169.573 101.01 166.488 101.985C163.403 102.959 161.028 104.562 160.095 103.751C159.668 103.345 159.749 102.228 160.582 100.909C161.678 99.3003 163.3 98.1234 165.169 97.5801C167.028 96.9956 169.035 97.0891 170.832 97.844C172.232 98.4935 172.923 99.3866 172.801 99.9549Z" fill="#263238"/>
<path d="M150.758 140.834C150.298 143.142 150.424 145.528 151.123 147.775C151.457 148.676 152.017 149.476 152.749 150.098C153.482 150.72 154.362 151.144 155.305 151.328C156.337 151.393 157.368 151.194 158.302 150.75C159.236 150.306 160.042 149.632 160.643 148.79C161.837 147.075 162.742 145.176 163.322 143.168C159.445 142.397 154.635 141.524 150.758 140.834Z" fill="#FF9A6C"/>
<path d="M159.527 151.185C158.128 151.378 156.705 151.282 155.345 150.901C153.914 150.415 152.676 149.484 151.814 148.242C150.785 146.681 150.386 144.788 150.697 142.944C150.817 142.191 151.064 141.464 151.428 140.793L150.982 141.016C157.944 141.727 163.16 143.411 163.16 143.147C162.112 142.551 160.984 142.107 159.811 141.828C156.959 140.986 154.038 140.396 151.083 140.062H150.779L150.616 140.326C150.191 141.096 149.903 141.934 149.764 142.802C149.41 144.897 149.891 147.046 151.103 148.79C152.092 150.161 153.527 151.144 155.163 151.571C155.874 151.83 156.634 151.929 157.388 151.863C158.142 151.796 158.872 151.565 159.527 151.185Z" fill="#263238"/>
<path d="M100.928 90.6177C103.784 86.8906 107.457 83.8696 111.666 81.7884C120.804 76.7977 130.928 73.8802 141.32 73.2431L147.531 70.5436C146.76 81.7681 136.814 100.584 127.234 106.125C124.21 107.871 120.8 109.251 118.689 112.072C116.616 115.355 115.821 119.284 116.456 123.114C117.108 126.923 117.549 130.765 117.775 134.623C117.869 136.295 117.405 137.951 116.456 139.332C115.765 140.093 114.869 140.64 113.876 140.906C112.882 141.172 111.833 141.147 110.854 140.834C108.879 140.163 107.161 138.893 105.942 137.2C103.452 133.543 101.662 129.455 100.665 125.144C98.7644 119.476 97.4982 113.615 96.8893 107.668C96.2947 101.693 97.7166 95.6908 100.928 90.6177Z" fill="#263238"/>
<path d="M109.878 131.517C109.472 131.517 94.533 130.949 98.7345 145.401C102.936 159.852 116.15 152.647 116.048 152.22C115.947 151.794 109.878 131.517 109.878 131.517Z" fill="#FFBF9D"/>
<path d="M110.141 148.019C110.141 148.019 109.938 148.283 109.573 148.587C109.327 148.803 109.04 148.966 108.73 149.067C108.419 149.168 108.092 149.205 107.766 149.176C106.122 149.075 104.174 147.024 103.342 144.426C102.955 143.201 102.831 141.908 102.976 140.631C102.977 140.143 103.093 139.663 103.315 139.229C103.538 138.795 103.86 138.42 104.255 138.134C104.516 137.979 104.824 137.92 105.125 137.968C105.425 138.016 105.699 138.169 105.899 138.398C106.203 138.743 106.203 139.068 106.285 139.068C106.366 139.068 106.528 138.723 106.285 138.175C106.115 137.834 105.826 137.567 105.473 137.424C105.003 137.242 104.482 137.242 104.011 137.424C103.467 137.723 103.009 138.156 102.678 138.681C102.348 139.207 102.157 139.808 102.124 140.428C101.885 141.859 101.989 143.327 102.428 144.711C103.362 147.593 105.615 149.886 107.807 149.886C108.219 149.883 108.625 149.787 108.994 149.604C109.363 149.421 109.686 149.157 109.938 148.831C110.202 148.384 110.182 148.039 110.141 148.019Z" fill="#FF9A6C"/>
<path d="M104.154 124.494C102.527 124.107 100.942 123.557 99.4252 122.85C97.6774 121.966 96.0921 120.793 94.7365 119.379C92.8987 117.534 91.5097 115.291 90.677 112.823L90.2101 113.31C93.3887 114.46 96.8392 114.63 100.115 113.797L100.968 113.574L100.278 113.026C98.8498 111.862 97.6663 110.427 96.7954 108.804C95.9245 107.18 95.3835 105.401 95.2033 103.567L94.635 104.075C98.4886 104.939 102.45 105.22 106.387 104.907C113.147 104.333 119.64 102.003 125.223 98.148C129.774 94.9229 133.592 90.7728 136.427 85.9695C138.35 82.726 139.806 79.2274 140.751 75.5773C141.005 74.5802 141.208 73.5708 141.36 72.5529C141.444 72.2008 141.478 71.8387 141.461 71.4772C141.461 71.4772 141.136 72.9183 140.406 75.5367C139.342 79.1046 137.814 82.5169 135.859 85.6854C132.997 90.3297 129.211 94.3366 124.736 97.4579C120.412 100.413 115.527 102.447 110.384 103.435C105.241 104.424 99.9491 104.344 94.838 103.202L94.2087 103.06V103.71C94.4019 105.68 94.986 107.593 95.9269 109.336C96.8679 111.078 98.1469 112.616 99.689 113.858L99.8514 113.087C96.7351 113.921 93.4401 113.801 90.3928 112.742L89.6621 112.478L89.926 113.209C90.8148 115.766 92.2883 118.08 94.229 119.968C95.6568 121.389 97.3272 122.544 99.1613 123.378C100.31 123.896 101.516 124.277 102.754 124.514C103.219 124.586 103.692 124.579 104.154 124.494Z" fill="#455A64"/>
<path d="M184.794 92.8099C184.74 92.4134 184.637 92.025 184.49 91.6529C184.127 90.574 183.672 89.5282 183.13 88.5271C181.22 84.935 178.426 81.8892 175.011 79.6774L174.788 80.4487L183.719 81.0374H185.038L184.043 80.124C181.886 78.1658 179.555 76.4063 177.081 74.8669C170.185 70.6167 162.284 68.2705 154.186 68.0673C151.761 68.0269 149.337 68.1899 146.94 68.5544C146.059 68.6891 145.19 68.8927 144.342 69.1634C147.605 68.8321 150.886 68.6965 154.166 68.7574C165.038 69.3022 175.384 73.607 183.434 80.9359L183.759 80.1037L174.828 79.6368H173.205L174.605 80.4893C177.941 82.5963 180.725 85.4705 182.724 88.8722C184.185 91.247 184.673 92.8099 184.794 92.8099Z" fill="#455A64"/>
<path d="M159.302 135.982C160.193 135.406 161.174 134.981 162.204 134.724L163.706 134.217L164.539 133.953C164.777 133.876 164.998 133.752 165.188 133.587C165.378 133.419 165.527 133.208 165.622 132.972C165.717 132.736 165.756 132.481 165.736 132.227C165.736 131.7 165.33 131.314 164.823 130.705C162.397 128.082 160.235 125.227 158.368 122.18C161.036 124.553 163.469 127.177 165.635 130.015C165.878 130.319 166.081 130.522 166.345 130.908C166.603 131.279 166.751 131.715 166.771 132.167C166.801 132.581 166.727 132.996 166.557 133.375C166.387 133.754 166.126 134.085 165.797 134.338C165.501 134.57 165.164 134.743 164.802 134.846L163.95 135.069L162.407 135.455C161.408 135.799 160.359 135.978 159.302 135.982Z" fill="#263238"/>
<path d="M46.7346 89.9075C47.5059 91.7342 81.2402 143.209 86.6393 149.521C92.0384 155.834 121.145 198.113 121.145 198.113L100.015 221.252C100.015 221.252 78.0129 186.747 63.1146 170.955C44.9687 151.652 22.1138 96.1185 22.1138 96.1185L46.7346 89.9075Z" fill="#FFBF9D"/>
<path d="M46.0633 91.3891C46.0633 91.3891 51.2798 79.8805 52.9036 74.6031C54.5274 69.3258 61.7736 60.3949 61.7736 60.3949C60.8617 59.6908 59.7749 59.2487 58.6304 59.1164C57.4859 58.984 56.3269 59.1664 55.2784 59.6439C52.0714 61.4504 44.3381 70.6046 42.5316 70.5031C40.2163 69.6783 38.3151 67.9811 37.234 65.7738C37.234 64.7589 34.3517 40.5238 31.9769 39.6916C29.6021 38.8594 26.3342 39.9148 26.2936 42.4926C26.2531 45.0704 29.3992 58.2028 27.613 58.3449C25.8268 58.487 21.3614 42.1069 19.0272 42.1069C18.4547 42.044 17.8754 42.1095 17.3313 42.2985C16.7873 42.4875 16.2922 42.7954 15.8821 43.1997C15.4719 43.604 15.157 44.0946 14.9602 44.6359C14.7634 45.1772 14.6897 45.7555 14.7444 46.3288C15.2315 48.866 18.5603 61.2068 17.0583 61.5722C15.5563 61.9375 12.6132 48.5615 10.9691 48.1759C9.32498 47.7902 7.27495 50.2056 7.6606 51.8091C8.04625 53.4126 12.3087 69.4882 10.4211 70.4828C8.53339 71.4773 3.37784 63.3381 2.16 62.6886C0.576796 61.8361 -1.29056 65.1648 1.24662 68.5748C2.05852 69.6709 19.9811 93.5407 22.2747 96.1793C24.5684 98.818 46.0633 91.3891 46.0633 91.3891Z" fill="#FFBF9D"/>
<path d="M17.5466 77.0795C17.5466 77.2622 19.1704 77.2419 21.6061 78.0538C24.7403 79.1088 27.4471 81.1531 29.3191 83.8791L29.7251 84.5084L30.2528 85.3203L30.6588 84.4678C32.7934 80.5205 35.5329 76.9317 38.7778 73.8319C37.5566 74.3952 36.4596 75.1955 35.5504 76.1864C33.1501 78.4188 31.1821 81.0748 29.7454 84.0212H30.6791L30.2325 83.3311C28.2502 80.4083 25.2816 78.2971 21.87 77.384C20.4873 76.8725 18.9873 76.7668 17.5466 77.0795Z" fill="#FF9A6C"/>
<path d="M182.95 187.152L175.948 186.34C169.858 198.093 150.88 201.848 129.771 194.013L124.737 194.906L97.3965 220.684L117.694 284.824L129.06 338.226C129.06 338.226 152.017 344.965 177.47 354.281C202.923 363.598 205.115 358.442 240.656 349.045C260.953 343.666 259.593 327.245 249.1 309.282C238.606 291.319 212.564 195.129 212.564 195.129L182.95 187.152Z" fill="#FF725E"/>
<path d="M130.562 194.297C129.974 194.297 107.423 165.881 107.423 165.881L73.2222 185.691L99.9539 224.743L130.562 194.297Z" fill="#FF725E"/>
<path d="M180.921 294.709C181.711 293.972 182.432 293.163 183.073 292.293C184.392 290.71 186.219 288.335 188.391 285.352C199.65 269.824 208.479 252.672 214.574 234.486C215.731 231.036 216.604 228.194 217.071 226.225C217.391 225.218 217.629 224.186 217.781 223.14C217.316 224.09 216.942 225.083 216.665 226.104C216.036 228.133 215.082 230.833 213.844 234.223C210.613 243.163 206.816 251.888 202.477 260.345C198.093 268.833 193.178 277.036 187.761 284.905C185.732 287.93 183.945 290.365 182.728 292.03C182.05 292.87 181.446 293.766 180.921 294.709Z" fill="#263238"/>
<path d="M111.298 216.361C111.908 215.227 112.294 213.987 112.435 212.707C113.513 206.568 112.483 200.244 109.512 194.764C108.98 193.58 108.221 192.511 107.279 191.618C109.124 195.455 110.487 199.504 111.339 203.675C111.863 207.888 111.85 212.151 111.298 216.361Z" fill="#263238"/>
<g opacity="0.3">
<path d="M215.728 261.989C215.618 280.126 209.904 297.786 199.368 312.55C194.902 318.781 188.367 325.013 180.471 324.424C195.398 305.572 207.293 284.507 215.728 261.989Z" fill="black"/>
</g>
<path d="M244.758 307.963L252.146 326.413C254.521 335.283 260.529 343.564 261.077 352.8L266.171 439.896L260.082 533.589L212.018 532.96L211.571 443.245L201.179 361.386L196.226 427.718C195.881 432.914 188.574 451.1 185.022 455.18L135.334 523.826C135.334 523.826 90.2332 508.745 90.2332 491.472L133.994 425.18L125.267 328.159L137.851 306.034C170.469 323.571 200.306 317.705 244.758 307.963Z" fill="#263238"/>
<path d="M188.409 418.746C186.986 418.055 185.424 417.696 183.842 417.696C182.26 417.696 180.699 418.055 179.275 418.746C176.451 420.179 173.956 422.184 171.948 424.632C164.774 432.692 160 442.599 158.166 453.231C157.46 456.08 157.644 459.077 158.694 461.817C161.008 466.587 167.543 467.906 172.516 466.08C177.489 464.253 181.183 460.153 184.695 456.195C189.522 448.384 193.187 439.913 195.574 431.046C196.792 426.094 192.956 421.202 188.409 418.746Z" fill="#455A64"/>
<path d="M263.428 421.628C261.967 417.833 259.673 415.275 256.121 414.951C252.062 414.585 248.347 417.67 246.439 421.405C244.744 425.321 243.86 429.54 243.841 433.807C243.238 440.623 243.469 447.487 244.532 454.246C244.967 457.573 246.207 460.743 248.144 463.482C249.098 464.801 250.402 465.827 251.909 466.444C253.415 467.061 255.064 467.244 256.669 466.973C260.729 465.978 263.002 461.452 264.24 457.271C267.549 445.985 266.169 426.601 263.428 421.628Z" fill="#455A64"/>
<path d="M142.983 509.009C142.281 508.914 141.597 508.716 140.953 508.42C139.674 507.994 137.888 507.284 135.696 506.391C129.973 503.903 124.444 500.992 119.154 497.683C113.872 494.381 108.838 490.697 104.093 486.662C102.286 485.099 100.845 483.8 99.9115 482.846C99.3732 482.395 98.8956 481.876 98.4907 481.303C98.6125 481.181 100.845 483.13 104.58 486.073C114.282 493.792 124.83 500.383 136.021 505.721C140.324 507.71 143.044 508.908 142.983 509.009Z" fill="#455A64"/>
<path d="M259.815 519.056C257.538 519.479 255.229 519.709 252.914 519.746C248.651 520.01 242.765 520.233 236.209 520.233C229.653 520.233 223.767 519.99 219.504 519.726C217.188 519.677 214.88 519.439 212.603 519.015C214.907 518.845 217.22 518.845 219.524 519.015C223.807 519.015 229.673 519.198 236.209 519.218C242.745 519.239 248.631 519.117 252.893 519.036C255.198 518.877 257.511 518.884 259.815 519.056Z" fill="#455A64"/>
<path d="M128.693 343.686L121.467 311.028L137.847 297.408V229.736L212.806 217.274C212.806 217.274 256.872 308.612 259.997 346.771L222.102 361.731C222.102 361.731 174.058 358.422 171.967 358.422C169.877 358.422 128.693 343.686 128.693 343.686Z" fill="#263238"/>
<path d="M128.148 191.618L140.327 236.922L150.476 235.501C150.476 235.501 142.235 201.888 139.292 196.733C136.349 191.577 125.936 187.66 125.936 187.66L128.148 191.618Z" fill="#263238"/>
<path d="M172.335 183.093C172.335 183.093 198.721 185.752 212.808 217.274L213.579 221.333L205.034 223.221C205.034 223.221 191.942 191.577 174.466 188.918L172.335 183.093Z" fill="#263238"/>
<path d="M157.578 284.641C157.627 285.317 157.882 285.961 158.308 286.488C159.881 287.659 161.84 288.189 163.789 287.97C171.059 287.624 178.265 286.439 185.263 284.438C194.194 282.185 204.728 278.998 216.298 275.101L220.662 273.599C222.083 273.031 223.889 272.747 224.518 271.671C225.148 270.595 224.518 268.971 223.747 267.611C222.976 266.252 222.387 264.628 221.717 263.105L213.192 244.391C211.751 241.245 210.128 238.018 207.306 236.272C204.485 234.527 200.973 235.075 197.787 235.745C191.312 237.125 185.04 238.485 179.093 239.804C173.146 241.123 167.523 242.585 162.307 244.066C159.807 244.52 157.573 245.906 156.055 247.943C155.078 250.075 154.76 252.45 155.142 254.763C155.933 263.917 156.583 271.326 157.05 276.563C157.232 279.08 157.395 281.048 157.517 282.49C157.517 283.119 157.517 283.626 157.517 284.032C157.544 284.207 157.544 284.385 157.517 284.56C157.517 284.56 157.517 284.397 157.415 284.052C157.314 283.707 157.293 283.139 157.212 282.51C157.05 281.089 156.827 279.1 156.563 276.603C156.015 271.367 155.264 263.958 154.31 254.844C153.878 252.362 154.211 249.807 155.264 247.517C156.869 245.279 159.275 243.745 161.982 243.234C167.219 241.712 172.841 240.251 178.788 238.85C184.735 237.45 190.967 236.069 197.503 234.669C199.174 234.275 200.881 234.058 202.597 234.019C204.401 233.986 206.18 234.435 207.753 235.318C210.96 237.226 212.604 240.657 214.065 243.803C216.988 250.217 219.83 256.489 222.57 262.537L224.6 267.043C224.99 267.799 225.316 268.587 225.574 269.398C225.862 270.298 225.782 271.276 225.351 272.118C224.833 272.873 224.074 273.431 223.199 273.701L220.946 274.472L216.562 275.954C204.952 279.831 194.397 282.936 185.385 285.088C178.334 287.054 171.066 288.138 163.748 288.315C161.711 288.491 159.686 287.865 158.105 286.569C157.888 286.339 157.729 286.061 157.638 285.757C157.545 285.561 157.503 285.345 157.517 285.128C157.519 284.964 157.539 284.801 157.578 284.641Z" fill="#455A64"/>
<path d="M138.539 306.582C139.378 306.472 140.232 306.585 141.014 306.908C141.796 307.232 142.48 307.756 142.996 308.427C143.512 309.098 143.843 309.893 143.955 310.732C144.067 311.571 143.957 312.425 143.635 313.208C143.313 313.991 142.791 314.676 142.121 315.194C141.451 315.712 140.657 316.045 139.818 316.159C138.979 316.273 138.125 316.165 137.341 315.845C136.557 315.525 135.871 315.004 135.352 314.336C134.903 313.645 134.628 312.855 134.551 312.034C134.475 311.213 134.598 310.386 134.912 309.623C135.225 308.861 135.719 308.186 136.351 307.656C136.982 307.126 137.733 306.758 138.539 306.582Z" fill="#455A64"/>
<path d="M139.371 321.44C140.211 321.33 141.064 321.443 141.847 321.766C142.629 322.09 143.312 322.614 143.828 323.285C144.345 323.956 144.675 324.751 144.787 325.59C144.9 326.429 144.789 327.283 144.467 328.066C144.146 328.85 143.624 329.534 142.954 330.052C142.284 330.57 141.49 330.903 140.651 331.017C139.812 331.131 138.958 331.023 138.174 330.703C137.39 330.383 136.704 329.862 136.185 329.194C135.735 328.503 135.461 327.713 135.384 326.892C135.307 326.071 135.431 325.244 135.744 324.481C136.058 323.719 136.551 323.044 137.183 322.514C137.815 321.984 138.566 321.616 139.371 321.44Z" fill="#455A64"/>
<path d="M158.289 310.805C158.796 312.313 159.009 313.905 158.918 315.493C158.959 323.257 156.058 330.749 150.799 336.461C149.778 337.685 148.539 338.711 147.145 339.485C147.145 339.343 148.404 338.166 150.23 335.953C155.065 330.184 157.881 322.991 158.248 315.473C158.309 312.611 158.126 310.825 158.289 310.805Z" fill="#455A64"/>
<path d="M208.505 357.691C208.591 355.063 208.814 352.441 209.175 349.836C209.642 345.005 210.169 338.307 210.352 330.899C210.535 323.49 210.352 316.691 210.088 311.9C209.848 309.282 209.746 306.654 209.784 304.025C210.011 304.68 210.147 305.363 210.19 306.055C210.393 307.415 210.616 309.363 210.819 311.799C211.363 318.136 211.559 324.499 211.407 330.858C211.251 337.213 210.756 343.554 209.926 349.857C209.601 352.272 209.276 354.22 209.012 355.56C208.928 356.288 208.758 357.004 208.505 357.691Z" fill="#455A64"/>
<path d="M249.139 312.022C245.695 309.921 242.436 307.531 239.397 304.877C236.139 302.489 233.102 299.813 230.324 296.88C233.772 298.984 237.031 301.381 240.067 304.045C243.316 306.437 246.351 309.106 249.139 312.022Z" fill="#455A64"/>
</svg>
