<svg width="33" height="20" viewBox="0 0 33 20" fill="none" xmlns="http://www.w3.org/2000/svg">
<path d="M26.7135 0H5.34271C2.40422 0 0 2 0 4.44444V15.5556C0 18 2.40422 20 5.34271 20H26.7135C29.652 20 32.0562 18 32.0562 15.5556V4.44444C32.0562 2 29.652 0 26.7135 0ZM28.8506 6.44445L18.2988 12.3333C17.6309 12.6667 16.8295 12.8889 16.0281 12.8889C15.2267 12.8889 14.4253 12.6667 13.7575 12.3333L3.20562 6.44445C2.67135 6.11111 2.53779 5.44444 2.93849 4.88889C3.33919 4.44444 4.1406 4.33333 4.80843 4.66667L15.3603 10.5556C15.761 10.7778 16.4288 10.7778 16.8295 10.5556L27.3814 4.66667C28.0492 4.33333 28.8506 4.44444 29.2513 5C29.5184 5.44444 29.3849 6.11111 28.8506 6.44445Z" fill="url(#paint0_linear_152_3922)"/>
<defs>
<linearGradient id="paint0_linear_152_3922" x1="0" y1="10" x2="32.0562" y2="10" gradientUnits="userSpaceOnUse">
<stop stop-color="#E71DE7"/>
<stop offset="1" stop-color="#6335F8"/>
</linearGradient>
</defs>
</svg>
