<svg width="22" height="28" viewBox="0 0 22 28" fill="none" xmlns="http://www.w3.org/2000/svg">
<path fill-rule="evenodd" clip-rule="evenodd" d="M18.0661 3.00704C20.0508 4.93241 21.1658 7.54378 21.1658 10.2667C21.1658 19.6 10.5829 28 10.5829 28C10.5829 28 0 19.6 0 10.2667C0 7.54378 1.11498 4.93241 3.09966 3.00704C5.08433 1.08166 7.77613 0 10.5829 0C13.3896 0 16.0814 1.08166 18.0661 3.00704ZM15.3938 10.2666C15.3938 12.8439 13.2401 14.9332 10.5834 14.9332C7.92664 14.9332 5.77295 12.8439 5.77295 10.2666C5.77295 7.68925 7.92664 5.59991 10.5834 5.59991C13.2401 5.59991 15.3938 7.68925 15.3938 10.2666Z" fill="url(#paint0_linear_152_3924)"/>
<defs>
<linearGradient id="paint0_linear_152_3924" x1="0" y1="14" x2="21.1658" y2="14" gradientUnits="userSpaceOnUse">
<stop stop-color="#E71DE7"/>
<stop offset="1" stop-color="#6335F8"/>
</linearGradient>
</defs>
</svg>
