<svg width="29" height="28" viewBox="0 0 29 28" fill="none" xmlns="http://www.w3.org/2000/svg">
<path d="M5.81257 12.1256C8.12156 16.5278 11.8336 20.1289 16.3794 22.3689L19.9071 18.9389C20.348 18.5111 20.9814 18.3867 21.5346 18.5578C23.3305 19.1333 25.2626 19.4444 27.259 19.4444C28.1489 19.4444 28.8624 20.1367 28.8624 21V26.4444C28.8624 27.3078 28.1489 28 27.259 28C12.2024 28 0 16.1622 0 1.55556C0 0.692222 0.721561 0 1.60347 0H7.21561C8.10553 0 8.81907 0.692222 8.81907 1.55556C8.81907 3.49222 9.13977 5.36667 9.73305 7.10889C9.90943 7.64556 9.78115 8.26 9.3402 8.68778L5.81257 12.1256Z" fill="url(#paint0_linear_152_3919)"/>
<defs>
<linearGradient id="paint0_linear_152_3919" x1="0" y1="14" x2="28.8624" y2="14" gradientUnits="userSpaceOnUse">
<stop stop-color="#E71DE7"/>
<stop offset="1" stop-color="#6335F8"/>
</linearGradient>
</defs>
</svg>
